<svg width="21" height="15" viewBox="0 0 21 15" fill="none" xmlns="http://www.w3.org/2000/svg">
<g clip-path="url(#clip0_5167_77429)">
<path d="M0.25 1.76297V1.25C0.25 0.918479 0.381696 0.600537 0.616117 0.366117C0.850537 0.131696 1.16848 0 1.5 0L19 0C19.3315 0 19.6495 0.131696 19.8839 0.366117C20.1183 0.600537 20.25 0.918479 20.25 1.25V1.76297L10.25 8.01297L0.25 1.76297ZM10.5813 9.28016C10.4819 9.34217 10.3671 9.37505 10.25 9.37505C10.1329 9.37505 10.0181 9.34217 9.91875 9.28016L0.25 3.23703V13.75C0.25 14.0815 0.381696 14.3995 0.616117 14.6339C0.850537 14.8683 1.16848 15 1.5 15H19C19.3315 15 19.6495 14.8683 19.8839 14.6339C20.1183 14.3995 20.25 14.0815 20.25 13.75V3.23703L10.5813 9.28016Z" fill="#0F1D40"/>
</g>
<defs>
<clipPath id="clip0_5167_77429">
<rect width="20" height="15" fill="white" transform="translate(0.25)"/>
</clipPath>
</defs>
</svg>
