<svg width="21" height="19" viewBox="0 0 21 19" fill="none" xmlns="http://www.w3.org/2000/svg">
<path d="M15.2655 0.5C18.7144 0.5 20.75 2.48459 20.75 5.88178H16.5189V5.91645C14.5552 5.91645 12.9633 7.46847 12.9633 9.38298C12.9633 11.2975 14.5552 12.8495 16.5189 12.8495H20.75V13.1615C20.75 16.5154 18.7144 18.4999 15.2655 18.4999H6.23446C2.78558 18.4999 0.750031 16.5154 0.750031 13.1615V5.83845C0.750031 2.48459 2.78558 0.5 6.23446 0.5H15.2655ZM20.0033 7.37239C20.4157 7.37239 20.75 7.69832 20.75 8.10036V10.6309C20.7452 11.031 20.4137 11.3542 20.0033 11.3589H16.5989C15.6048 11.3719 14.7355 10.7083 14.51 9.7643C14.3971 9.17827 14.5556 8.57354 14.9431 8.11219C15.3305 7.65085 15.9073 7.38005 16.5189 7.37239H20.0033ZM16.9989 8.54235H16.67C16.4681 8.54003 16.2736 8.61661 16.13 8.75501C15.9863 8.89341 15.9055 9.0821 15.9055 9.27898C15.9055 9.69203 16.2464 10.0282 16.67 10.033H16.9989C17.4211 10.033 17.7633 9.69927 17.7633 9.28765C17.7633 8.87603 17.4211 8.54235 16.9989 8.54235ZM11.1322 4.39118H5.48779C5.06905 4.39115 4.72822 4.71958 4.72335 5.12781C4.72335 5.54086 5.06417 5.87704 5.48779 5.88178H11.1322C11.5544 5.88178 11.8967 5.5481 11.8967 5.13648C11.8967 4.72486 11.5544 4.39118 11.1322 4.39118Z" fill="#0F1D40"/>
</svg>
