<svg width="51" height="52" viewBox="0 0 51 52" fill="none" xmlns="http://www.w3.org/2000/svg">
<path d="M9.61189 41.9321C7.61748 39.9377 8.93986 35.7538 7.92098 33.3042C6.9021 30.8545 3 28.7084 3 25.9986C3 23.2888 6.85874 21.2293 7.92098 18.693C8.98322 16.1566 7.61748 12.0594 9.61189 10.065C11.6063 8.07061 15.7902 9.39298 18.2399 8.3741C20.6895 7.35522 22.8357 3.45312 25.5455 3.45312C28.2552 3.45312 30.3147 7.31187 32.851 8.3741C35.3874 9.43634 39.4846 8.07061 41.479 10.065C43.4734 12.0594 42.151 16.2433 43.1699 18.693C44.1888 21.1426 48.0909 23.2888 48.0909 25.9986C48.0909 28.7084 44.2322 30.7678 43.1699 33.3042C42.1077 35.8405 43.4734 39.9377 41.479 41.9321C39.4846 43.9266 35.3007 42.6042 32.851 43.6231C30.4014 44.6419 28.2552 48.544 25.5455 48.544C22.8357 48.544 20.7762 44.6853 18.2399 43.6231C15.7035 42.5608 11.6063 43.9266 9.61189 41.9321Z" fill="#B5644D" stroke="#B5644D" stroke-width="5.58894" stroke-linecap="round" stroke-linejoin="round"/>
</svg>
