<svg width="14" height="13" viewBox="0 0 14 13" fill="none" xmlns="http://www.w3.org/2000/svg">
<path d="M6.82956 1.19973L4.19334 3.83596C4.10814 3.92116 4.10814 4.05931 4.19334 4.14451L6.83033 6.78151C6.91554 6.86671 7.05368 6.86671 7.13889 6.78151L9.77511 4.14528C9.86032 4.06008 9.86032 3.92193 9.77511 3.83673L7.13812 1.19973C7.05291 1.11453 6.91477 1.11453 6.82956 1.19973Z" stroke="#E6007A" stroke-width="1.09091" stroke-linecap="round" stroke-linejoin="round"/>
<path d="M3.33738 6.21926L0.701153 8.85549C0.615948 8.94069 0.615948 9.07884 0.701153 9.16404L3.33815 11.801C3.42335 11.8862 3.5615 11.8862 3.6467 11.801L6.28293 9.16481C6.36813 9.07961 6.36813 8.94146 6.28293 8.85626L3.64593 6.21926C3.56073 6.13406 3.42258 6.13406 3.33738 6.21926Z" stroke="#E6007A" stroke-width="1.09091" stroke-linecap="round" stroke-linejoin="round"/>
<path d="M10.3218 6.21926L7.68553 8.85549C7.60032 8.94069 7.60032 9.07884 7.68553 9.16404L10.3225 11.801C10.4077 11.8862 10.5459 11.8862 10.6311 11.801L13.2673 9.16481C13.3525 9.07961 13.3525 8.94146 13.2673 8.85626L10.6303 6.21926C10.5451 6.13406 10.407 6.13406 10.3218 6.21926Z" stroke="#E6007A" stroke-width="1.09091" stroke-linecap="round" stroke-linejoin="round"/>
</svg>
