<svg width="26" height="24" viewBox="0 0 26 24" fill="none" xmlns="http://www.w3.org/2000/svg">
<g style="mix-blend-mode:hard-light" opacity="0.6">
<path d="M24.1337 3.40169C20.4857 5.00169 18.6617 7.46568 18.6617 10.7937C18.6617 12.2657 18.8857 13.2257 19.3337 13.6737C19.8457 14.0577 20.5177 14.2497 21.3497 14.2497C22.8857 14.2497 24.0057 14.6337 24.7097 15.4017C25.4777 16.1697 25.8617 17.1297 25.8617 18.2817C25.8617 19.8177 25.3817 21.0337 24.4217 21.9297C23.5257 22.8257 22.2457 23.2737 20.5817 23.2737C16.4857 23.2737 14.4377 21.1297 14.4377 16.8417V13.5777C14.4377 9.9297 15.3337 7.01771 17.1257 4.84169C18.9817 2.66569 21.3177 1.0977 24.1337 0.137695V3.40169ZM9.75459 3.7857C6.04258 5.38571 4.18659 7.84968 4.18659 11.1777C4.18659 12.6497 4.41059 13.6097 4.85859 14.0577C5.37058 14.4417 6.07461 14.6337 6.97059 14.6337C9.91461 14.6337 11.3866 15.9777 11.3866 18.6657C11.3866 20.2017 10.9386 21.4177 10.0426 22.3137C9.14661 23.2097 7.86658 23.6577 6.20259 23.6577C3.70659 23.6577 2.0426 23.0177 1.21059 21.7377C0.442594 20.4577 0.0585938 18.9217 0.0585938 17.1297V13.9617C0.0585938 10.2497 0.954592 7.3377 2.74659 5.2257C4.60259 3.04969 6.93861 1.48169 9.75459 0.52169V3.7857Z" fill="#4F4F4F"/>
</g>
</svg>
