<svg width="375" height="375" viewBox="0 0 375 375" fill="none" xmlns="http://www.w3.org/2000/svg">
<g filter="url(#filter0_i_10126_52489)">
<path d="M35.6305 133.408C35.6304 133.693 35.5553 133.975 35.4129 134.222L32.6045 139.086C32.5432 139.192 32.3809 139.149 32.3809 139.026C32.3809 101.697 32.3809 83.0326 39.6456 68.7748C46.0358 56.2334 56.2324 46.0368 68.7739 39.6466C74.9495 36.5 81.9518 34.7163 90.9395 33.7052C92.2872 33.5536 93.1966 35.0242 92.4715 36.1703C92.2051 36.5913 91.7513 36.8828 91.2562 36.9387C82.524 37.9247 75.9521 39.635 70.2487 42.5411C58.3184 48.6198 48.6189 58.3194 42.5401 70.2496C39.18 76.8442 37.4185 84.5997 36.5268 95.5133C36.5107 95.71 36.4949 95.9077 36.4794 96.1063C36.3775 97.4127 36.2881 98.7616 36.2091 100.153C35.7006 109.115 35.6381 119.909 35.6305 133.408Z" fill="url(#paint0_linear_10126_52489)"/>
<path d="M71.9995 83.8123C72.2988 83.2939 71.7187 82.7138 71.2003 83.0131C68.7525 84.4264 66.7201 86.4594 65.3068 88.9073L35.6295 140.31L32.3809 145.937L28.9256 151.921C22.9177 162.328 17.8766 171.059 13.7747 178.648C13.2226 179.67 13.1841 180.892 13.6808 181.941C14.0734 182.77 15.241 182.789 15.6727 181.98C19.8968 174.059 25.2274 164.824 31.7389 153.546L71.9995 83.8123Z" fill="url(#paint1_linear_10126_52489)"/>
<path d="M35.6295 235.975C35.6295 248.998 35.6307 259.661 35.9328 268.633C35.9637 269.55 34.9428 270.117 34.188 269.595C33.2334 268.935 32.6559 267.858 32.6233 266.698C32.3809 258.074 32.381 247.991 32.381 235.975L32.3809 163.212C32.3809 160.386 33.1244 157.609 34.5374 155.162C34.8368 154.643 35.6295 154.855 35.6295 155.454L35.6295 228.191C35.6295 228.192 35.6297 228.192 35.63 228.193C35.6303 228.194 35.6305 228.194 35.6305 228.195L35.63 234.69L35.6295 235.975Z" fill="url(#paint2_linear_10126_52489)"/>
<path d="M338.79 100.153C339.956 100.917 341.079 101.669 342.159 102.411C342.324 102.523 342.487 102.636 342.649 102.748C351.655 108.977 357.49 114.38 361.521 120.587C368.814 131.817 372.364 145.067 371.663 158.438C371.328 164.83 369.524 171.377 366.012 179.432C365.812 179.889 365.838 180.428 366.069 180.869C366.699 182.07 368.428 182.018 368.97 180.775C372.588 172.486 374.545 165.53 374.908 158.608C375.644 144.552 371.912 130.623 364.246 118.818C355.531 105.398 339.367 96.0656 307.039 77.4012C306.933 77.3399 306.814 77.4587 306.875 77.5648L309.684 82.4292C309.826 82.6759 310.033 82.8818 310.279 83.0244C321.966 89.7806 331.283 95.2313 338.79 100.153Z" fill="url(#paint3_linear_10126_52489)"/>
<path d="M339.37 139.026C339.37 126.003 339.368 115.34 339.066 106.368C339.035 105.451 340.056 104.884 340.811 105.406C341.766 106.066 342.343 107.144 342.376 108.304C342.618 116.927 342.618 127.009 342.618 139.023L342.618 139.026L342.618 145.934C342.618 145.934 342.618 145.935 342.619 145.936C342.619 145.936 342.619 145.937 342.619 145.937L342.619 152.433L342.618 211.84C342.618 214.633 341.884 217.376 340.487 219.794C340.479 219.809 340.47 219.825 340.461 219.84C340.162 220.358 339.37 220.146 339.37 219.547L339.37 139.026Z" fill="url(#paint4_linear_10126_52489)"/>
<path d="M343.26 221.455C349.772 210.177 355.102 200.942 359.326 193.021C359.758 192.211 360.926 192.231 361.319 193.06C361.815 194.109 361.777 195.331 361.225 196.352C357.125 203.938 352.086 212.666 346.081 223.066L346.079 223.071L346.073 223.08L309.692 286.094C308.279 288.542 306.247 290.575 303.799 291.988C303.281 292.287 302.7 291.707 303 291.188L343.26 221.455Z" fill="url(#paint5_linear_10126_52489)"/>
<path d="M339.368 241.593C339.369 241.308 339.444 241.026 339.586 240.779L342.394 235.915C342.456 235.809 342.618 235.852 342.618 235.975C342.618 250.84 342.619 262.745 342.16 272.591C342.095 273.989 342.02 275.347 341.935 276.664C341.116 289.368 339.314 298.453 335.353 306.226C328.963 318.768 318.767 328.964 306.225 335.354C300.05 338.501 293.047 340.285 284.059 341.296C282.712 341.447 281.802 339.977 282.527 338.831C282.794 338.41 283.247 338.118 283.743 338.062C292.475 337.076 299.047 335.366 304.75 332.46C316.681 326.381 326.38 316.682 332.459 304.751C335.819 298.157 337.581 290.401 338.472 279.488C339.275 269.662 339.36 257.507 339.368 241.593Z" fill="url(#paint6_linear_10126_52489)"/>
<path d="M274.847 338.791C279.769 331.284 285.22 321.967 291.976 310.28C292.118 310.033 292.324 309.827 292.571 309.685L297.435 306.876C297.541 306.815 297.66 306.934 297.599 307.04C278.934 339.368 269.602 355.532 256.182 364.247C244.377 371.913 230.448 375.645 216.392 374.909C209.47 374.546 202.514 372.589 194.225 368.971C192.982 368.429 192.93 366.7 194.131 366.07C194.572 365.839 195.111 365.813 195.568 366.013C203.623 369.525 210.17 371.329 216.562 371.665C229.933 372.365 243.183 368.815 254.413 361.522C260.62 357.491 266.023 351.656 272.252 342.65C272.364 342.488 272.477 342.325 272.589 342.16C273.331 341.08 274.083 339.957 274.847 338.791Z" fill="url(#paint7_linear_10126_52489)"/>
<path d="M83.8115 303.001C83.2932 302.701 82.7131 303.281 83.0123 303.8C84.4257 306.248 86.4588 308.28 88.9067 309.693L140.309 339.371L145.935 342.619L151.921 346.075C162.327 352.083 171.058 357.124 178.647 361.225C179.669 361.778 180.891 361.816 181.94 361.319C182.769 360.927 182.789 359.759 181.979 359.327C174.059 355.103 164.823 349.773 153.545 343.261L83.8115 303.001Z" fill="url(#paint8_linear_10126_52489)"/>
<path d="M269.594 340.812C268.934 341.767 267.856 342.344 266.696 342.377C258.072 342.619 247.99 342.619 235.974 342.619L160.782 342.619C159.547 342.619 158.333 342.294 157.264 341.677L155.16 340.463C154.642 340.163 154.854 339.371 155.453 339.371L235.974 339.371C248.997 339.371 259.66 339.369 268.632 339.067C269.549 339.036 270.116 340.057 269.594 340.812Z" fill="url(#paint9_linear_10126_52489)"/>
<path d="M33.0641 276.664C22.4711 269.602 15.5049 263.5 10.7531 256.183C3.08699 244.378 -0.645221 230.449 0.0914445 216.393C0.454177 209.471 2.41069 202.515 6.02901 194.226C6.57155 192.983 8.29985 192.931 8.92983 194.132C9.1613 194.573 9.18681 195.112 8.98766 195.568C5.47533 203.624 3.67058 210.171 3.33555 216.563C2.63481 229.934 6.1851 243.184 13.4776 254.414C17.5086 260.621 23.3443 266.024 32.3499 272.253C40.4582 277.862 50.9418 284.012 64.7199 291.977C64.9666 292.119 65.1735 292.326 65.3159 292.572L68.1239 297.436C68.1853 297.542 68.0664 297.661 67.96 297.6C55.0869 290.168 44.7768 284.215 36.4795 278.895C35.3011 278.139 34.1629 277.396 33.0641 276.664Z" fill="url(#paint10_linear_10126_52489)"/>
<path d="M33.7042 284.061C33.5526 282.713 35.0232 281.804 36.1693 282.529C36.5904 282.795 36.8818 283.249 36.9377 283.744C37.9237 292.476 39.634 299.048 42.5401 304.751C48.6189 316.682 58.3184 326.381 70.2487 332.46C76.8433 335.82 84.5987 337.582 95.5123 338.473C95.7093 338.489 95.9073 338.505 96.1062 338.521C96.2201 338.529 96.3344 338.538 96.4489 338.547C97.6483 338.638 98.8821 338.719 100.153 338.791C109.115 339.3 119.908 339.362 133.407 339.369C133.692 339.37 133.974 339.445 134.221 339.587L139.092 342.4C139.196 342.46 139.154 342.619 139.033 342.619L139.025 342.619C139.025 342.619 139.025 342.619 139.025 342.619C101.697 342.619 83.0314 342.619 68.7738 335.354C56.2324 328.964 46.0358 318.768 39.6456 306.226C36.499 300.051 34.7153 293.048 33.7042 284.061Z" fill="url(#paint11_linear_10126_52489)"/>
<path d="M235.914 32.6058C235.808 32.5444 235.851 32.3819 235.974 32.3819C250.839 32.3819 262.745 32.3819 272.591 32.8407C272.596 32.8409 272.601 32.8412 272.607 32.8415C273.999 32.9065 275.351 32.9806 276.664 33.0652C289.368 33.8844 298.452 35.6858 306.225 39.6466C318.767 46.0369 328.963 56.2334 335.353 68.7749C338.5 74.9506 340.284 81.953 341.295 90.9409C341.447 92.2886 339.976 93.198 338.83 92.4729C338.409 92.2064 338.117 91.7527 338.061 91.2575C337.075 82.5252 335.365 75.9532 332.459 70.2497C326.38 58.3195 316.681 48.6199 304.75 42.5411C298.156 39.181 290.4 37.4195 279.487 36.5278C279.177 36.5025 278.865 36.4779 278.55 36.454C277.351 36.3628 276.118 36.2818 274.848 36.2097C265.886 35.701 255.092 35.6391 241.591 35.6315C241.306 35.6314 241.025 35.5563 240.778 35.4139L235.914 32.6058Z" fill="url(#paint12_linear_10126_52489)"/>
<path d="M96.1051 36.4804C96.8607 35.3019 97.6037 34.164 98.3362 33.0652C105.398 22.4721 111.5 15.5059 118.817 10.7541C130.622 3.08799 144.551 -0.644185 158.607 0.0924493C165.529 0.455212 172.485 2.41169 180.774 6.02992C182.017 6.57246 182.069 8.30073 180.868 8.93071C180.427 9.16218 179.888 9.1877 179.431 8.98854C171.376 5.4763 164.829 3.67158 158.437 3.33656C145.066 2.63581 131.816 6.18611 120.586 13.4786C114.379 17.5096 108.976 23.3453 102.747 32.3509C97.1386 40.4591 90.9883 50.9426 83.0233 64.7206C82.8807 64.9673 82.6746 65.1741 82.4279 65.3166L77.5639 68.1248C77.4577 68.1861 77.3388 68.0673 77.4001 67.9611C84.8325 55.0879 90.785 44.7777 96.1051 36.4804Z" fill="url(#paint13_linear_10126_52489)"/>
<path d="M286.094 65.3085C288.541 66.7215 290.574 68.7535 291.987 71.201C292.286 71.7196 291.706 72.2999 291.188 72.0005L228.193 35.6305L221.454 31.7399C210.176 25.2285 200.941 19.8979 193.02 15.6738C192.211 15.242 192.23 14.0741 193.059 13.6815C194.108 13.185 195.33 13.2234 196.351 13.7753C203.941 17.8774 212.672 22.9185 223.079 28.9266L286.094 65.3085Z" fill="url(#paint14_linear_10126_52489)"/>
<path d="M139.022 32.3819L139.017 32.3819C127.004 32.382 116.925 32.382 108.303 32.6242C107.142 32.6569 106.065 33.2345 105.405 34.1893C104.883 34.9439 105.45 35.9647 106.367 35.9338C115.338 35.6317 126.002 35.6305 139.025 35.6305L219.546 35.6305C220.144 35.6305 220.357 34.838 219.838 34.5387C217.391 33.1255 214.614 32.3819 211.787 32.3819L139.025 32.3819L139.022 32.3819Z" fill="url(#paint15_linear_10126_52489)"/>
<path d="M73.9446 73.9463L67.9611 77.4012C57.5548 83.4092 48.8233 88.4503 41.4761 92.9721C40.4875 93.5805 39.8432 94.6194 39.7487 95.7764C39.674 96.6909 40.6757 97.2914 41.4544 96.8062C49.0729 92.0588 58.307 86.726 69.5854 80.2145L139.319 39.954C139.837 39.6547 139.625 38.8621 139.026 38.8621C136.224 38.8621 133.434 39.6002 131.007 41.0014L79.5712 70.6978L73.9446 73.9463Z" fill="url(#paint16_linear_10126_52489)"/>
<path d="M0.0925177 158.608C0.549121 167.32 3.53081 176.088 9.1733 187.5C9.75853 188.683 10.3728 189.896 11.0154 191.14C15.5411 199.896 21.4942 210.206 28.9267 223.08C28.988 223.186 29.1503 223.142 29.1503 223.02L29.1503 217.403C29.1503 217.118 29.0742 216.836 28.9319 216.589C20.9823 202.803 14.9785 192.235 10.7607 183.324C6.07616 173.426 3.72399 165.829 3.33663 158.438C2.63585 145.067 6.18618 131.817 13.4787 120.587C16.965 115.219 21.8012 110.452 28.8705 105.232C29.2714 104.936 29.5186 104.457 29.5388 103.959C29.5937 102.604 28.0709 101.785 26.9795 102.59C19.7015 107.959 14.5291 113.005 10.7542 118.818C3.08806 130.623 -0.644145 144.552 0.0925177 158.608Z" fill="url(#paint17_linear_10126_52489)"/>
<path d="M336.139 139.026C336.139 139.625 335.346 139.837 335.047 139.319L298.677 76.3245L295.429 70.6979L294.787 69.5853C288.275 58.3069 282.942 49.0728 278.195 41.4543C277.71 40.6756 278.31 39.674 279.225 39.7487C280.382 39.8433 281.421 40.4875 282.029 41.4762C286.551 48.8234 291.592 57.5548 297.6 67.961L334.825 132.436C335.685 133.927 336.139 135.618 336.139 137.339L336.139 139.026Z" fill="url(#paint18_linear_10126_52489)"/>
<path d="M304.303 295.429L298.676 298.678L235.682 335.047C235.164 335.346 235.376 336.139 235.975 336.139C238.801 336.139 241.578 335.394 244.026 333.981L307.04 297.6C317.446 291.592 326.178 286.551 333.525 282.029C334.513 281.421 335.158 280.382 335.252 279.225C335.327 278.31 334.325 277.71 333.547 278.195C325.928 282.942 316.694 288.275 305.416 294.787L304.303 295.429Z" fill="url(#paint19_linear_10126_52489)"/>
<path d="M363.984 191.14C364.07 191.32 364.156 191.499 364.24 191.677C368.925 201.575 371.277 209.172 371.665 216.563C372.365 229.934 368.815 243.184 361.522 254.414C358.036 259.782 353.2 264.549 346.13 269.769C345.73 270.065 345.482 270.545 345.462 271.043C345.407 272.398 346.93 273.216 348.021 272.411C355.3 267.042 360.472 261.996 364.247 256.183C371.913 244.378 375.645 230.449 374.909 216.393C374.071 200.413 364.739 184.249 346.074 151.921C346.013 151.815 345.851 151.859 345.851 151.981L345.851 157.598C345.851 157.883 345.927 158.164 346.069 158.411C352.812 170.105 358.155 179.484 362.195 187.5C362.823 188.744 363.419 189.957 363.984 191.14Z" fill="url(#paint20_linear_10126_52489)"/>
<path d="M183.324 364.24C183.502 364.156 183.681 364.071 183.86 363.985C185.043 363.42 186.255 362.824 187.5 362.196C195.516 358.156 204.895 352.812 216.59 346.069C216.837 345.927 217.118 345.851 217.403 345.851L223.02 345.851C223.142 345.851 223.186 346.013 223.08 346.074C190.752 364.739 174.588 374.071 158.608 374.909C144.552 375.645 130.623 371.913 118.818 364.247C113.005 360.472 107.959 355.3 102.59 348.021C101.785 346.93 102.604 345.407 103.959 345.462C104.457 345.482 104.936 345.73 105.232 346.13C110.452 353.2 115.219 358.036 120.587 361.522C131.817 368.815 145.067 372.365 158.438 371.664C165.829 371.277 173.426 368.925 183.324 364.24Z" fill="url(#paint21_linear_10126_52489)"/>
<path d="M73.9458 301.056L77.4012 307.04C83.4093 317.446 88.4504 326.178 92.9721 333.525C93.5805 334.514 94.6194 335.158 95.7764 335.252C96.691 335.327 97.2914 334.325 96.8061 333.547C92.0588 325.928 86.7261 316.694 80.2145 305.416L39.9541 235.682C39.6547 235.164 38.8621 235.376 38.8621 235.975C38.8621 238.778 39.6004 241.567 41.0017 243.994L70.6973 295.429L73.9458 301.056Z" fill="url(#paint22_linear_10126_52489)"/>
<path d="M183.86 11.0162C175.104 15.5418 164.794 21.4945 151.921 28.9266C151.815 28.9879 151.859 29.1503 151.981 29.1503L157.598 29.1503C157.883 29.1503 158.165 29.0742 158.412 28.9319C172.198 20.9823 182.766 14.9785 191.678 10.7607C201.575 6.07613 209.172 3.72392 216.563 3.33656C229.934 2.63579 243.184 6.18612 254.414 13.4786C259.782 16.965 264.549 21.8012 269.769 28.8706C270.065 29.2714 270.545 29.5187 271.043 29.5388C272.398 29.5938 273.216 28.0709 272.411 26.9795C267.042 19.7015 261.996 14.5291 256.183 10.7541C244.378 3.088 230.449 -0.644208 216.393 0.0924544C207.68 0.549058 198.912 3.53105 187.5 9.17412C186.316 9.75938 185.103 10.3736 183.86 11.0162Z" fill="url(#paint23_linear_10126_52489)"/>
</g>
<defs>
<filter id="filter0_i_10126_52489" x="0" y="0" width="376.187" height="375" filterUnits="userSpaceOnUse" color-interpolation-filters="sRGB">
<feFlood flood-opacity="0" result="BackgroundImageFix"/>
<feBlend mode="normal" in="SourceGraphic" in2="BackgroundImageFix" result="shape"/>
<feColorMatrix in="SourceAlpha" type="matrix" values="0 0 0 0 0 0 0 0 0 0 0 0 0 0 0 0 0 0 127 0" result="hardAlpha"/>
<feOffset dx="1.18724"/>
<feGaussianBlur stdDeviation="1.18724"/>
<feComposite in2="hardAlpha" operator="arithmetic" k2="-1" k3="1"/>
<feColorMatrix type="matrix" values="0 0 0 0 0.441667 0 0 0 0 0.709501 0 0 0 0 1 0 0 0 0.58 0"/>
<feBlend mode="normal" in2="shape" result="effect1_innerShadow_10126_52489"/>
</filter>
<linearGradient id="paint0_linear_10126_52489" x1="375" y1="187.501" x2="7.74269e-05" y2="187.501" gradientUnits="userSpaceOnUse">
<stop stop-color="#5E1ED1"/>
<stop offset="1" stop-color="#3065F3"/>
</linearGradient>
<linearGradient id="paint1_linear_10126_52489" x1="375" y1="187.501" x2="7.74269e-05" y2="187.501" gradientUnits="userSpaceOnUse">
<stop stop-color="#5E1ED1"/>
<stop offset="1" stop-color="#3065F3"/>
</linearGradient>
<linearGradient id="paint2_linear_10126_52489" x1="375" y1="187.501" x2="7.74269e-05" y2="187.501" gradientUnits="userSpaceOnUse">
<stop stop-color="#5E1ED1"/>
<stop offset="1" stop-color="#3065F3"/>
</linearGradient>
<linearGradient id="paint3_linear_10126_52489" x1="375" y1="187.501" x2="7.74269e-05" y2="187.501" gradientUnits="userSpaceOnUse">
<stop stop-color="#5E1ED1"/>
<stop offset="1" stop-color="#3065F3"/>
</linearGradient>
<linearGradient id="paint4_linear_10126_52489" x1="375" y1="187.501" x2="7.74269e-05" y2="187.501" gradientUnits="userSpaceOnUse">
<stop stop-color="#5E1ED1"/>
<stop offset="1" stop-color="#3065F3"/>
</linearGradient>
<linearGradient id="paint5_linear_10126_52489" x1="375" y1="187.501" x2="7.74269e-05" y2="187.501" gradientUnits="userSpaceOnUse">
<stop stop-color="#5E1ED1"/>
<stop offset="1" stop-color="#3065F3"/>
</linearGradient>
<linearGradient id="paint6_linear_10126_52489" x1="375" y1="187.501" x2="7.74269e-05" y2="187.501" gradientUnits="userSpaceOnUse">
<stop stop-color="#5E1ED1"/>
<stop offset="1" stop-color="#3065F3"/>
</linearGradient>
<linearGradient id="paint7_linear_10126_52489" x1="375" y1="187.501" x2="7.74269e-05" y2="187.501" gradientUnits="userSpaceOnUse">
<stop stop-color="#5E1ED1"/>
<stop offset="1" stop-color="#3065F3"/>
</linearGradient>
<linearGradient id="paint8_linear_10126_52489" x1="375" y1="187.501" x2="7.74269e-05" y2="187.501" gradientUnits="userSpaceOnUse">
<stop stop-color="#5E1ED1"/>
<stop offset="1" stop-color="#3065F3"/>
</linearGradient>
<linearGradient id="paint9_linear_10126_52489" x1="375" y1="187.501" x2="7.74269e-05" y2="187.501" gradientUnits="userSpaceOnUse">
<stop stop-color="#5E1ED1"/>
<stop offset="1" stop-color="#3065F3"/>
</linearGradient>
<linearGradient id="paint10_linear_10126_52489" x1="375" y1="187.501" x2="7.74269e-05" y2="187.501" gradientUnits="userSpaceOnUse">
<stop stop-color="#5E1ED1"/>
<stop offset="1" stop-color="#3065F3"/>
</linearGradient>
<linearGradient id="paint11_linear_10126_52489" x1="375" y1="187.501" x2="7.74269e-05" y2="187.501" gradientUnits="userSpaceOnUse">
<stop stop-color="#5E1ED1"/>
<stop offset="1" stop-color="#3065F3"/>
</linearGradient>
<linearGradient id="paint12_linear_10126_52489" x1="375" y1="187.501" x2="7.74269e-05" y2="187.501" gradientUnits="userSpaceOnUse">
<stop stop-color="#5E1ED1"/>
<stop offset="1" stop-color="#3065F3"/>
</linearGradient>
<linearGradient id="paint13_linear_10126_52489" x1="375" y1="187.501" x2="7.74269e-05" y2="187.501" gradientUnits="userSpaceOnUse">
<stop stop-color="#5E1ED1"/>
<stop offset="1" stop-color="#3065F3"/>
</linearGradient>
<linearGradient id="paint14_linear_10126_52489" x1="375" y1="187.501" x2="7.74269e-05" y2="187.501" gradientUnits="userSpaceOnUse">
<stop stop-color="#5E1ED1"/>
<stop offset="1" stop-color="#3065F3"/>
</linearGradient>
<linearGradient id="paint15_linear_10126_52489" x1="375" y1="187.501" x2="7.74269e-05" y2="187.501" gradientUnits="userSpaceOnUse">
<stop stop-color="#5E1ED1"/>
<stop offset="1" stop-color="#3065F3"/>
</linearGradient>
<linearGradient id="paint16_linear_10126_52489" x1="375" y1="187.501" x2="7.74269e-05" y2="187.501" gradientUnits="userSpaceOnUse">
<stop stop-color="#5E1ED1"/>
<stop offset="1" stop-color="#3065F3"/>
</linearGradient>
<linearGradient id="paint17_linear_10126_52489" x1="375" y1="187.501" x2="7.74269e-05" y2="187.501" gradientUnits="userSpaceOnUse">
<stop stop-color="#5E1ED1"/>
<stop offset="1" stop-color="#3065F3"/>
</linearGradient>
<linearGradient id="paint18_linear_10126_52489" x1="375" y1="187.501" x2="7.74269e-05" y2="187.501" gradientUnits="userSpaceOnUse">
<stop stop-color="#5E1ED1"/>
<stop offset="1" stop-color="#3065F3"/>
</linearGradient>
<linearGradient id="paint19_linear_10126_52489" x1="375" y1="187.501" x2="7.74269e-05" y2="187.501" gradientUnits="userSpaceOnUse">
<stop stop-color="#5E1ED1"/>
<stop offset="1" stop-color="#3065F3"/>
</linearGradient>
<linearGradient id="paint20_linear_10126_52489" x1="375" y1="187.501" x2="7.74269e-05" y2="187.501" gradientUnits="userSpaceOnUse">
<stop stop-color="#5E1ED1"/>
<stop offset="1" stop-color="#3065F3"/>
</linearGradient>
<linearGradient id="paint21_linear_10126_52489" x1="375" y1="187.501" x2="7.74269e-05" y2="187.501" gradientUnits="userSpaceOnUse">
<stop stop-color="#5E1ED1"/>
<stop offset="1" stop-color="#3065F3"/>
</linearGradient>
<linearGradient id="paint22_linear_10126_52489" x1="375" y1="187.501" x2="7.74269e-05" y2="187.501" gradientUnits="userSpaceOnUse">
<stop stop-color="#5E1ED1"/>
<stop offset="1" stop-color="#3065F3"/>
</linearGradient>
<linearGradient id="paint23_linear_10126_52489" x1="375" y1="187.501" x2="7.74269e-05" y2="187.501" gradientUnits="userSpaceOnUse">
<stop stop-color="#5E1ED1"/>
<stop offset="1" stop-color="#3065F3"/>
</linearGradient>
</defs>
</svg>
