<svg width="23" height="21" viewBox="0 0 23 21" fill="none" xmlns="http://www.w3.org/2000/svg">
<path d="M16.6195 13.5437H8.78188L8.78188 7.34395L16.6195 7.34395C19.5861 7.34395 21.052 9.12313 21.5945 9.98535C21.6794 10.117 21.7254 10.2781 21.7254 10.4438C21.7254 10.6095 21.6794 10.7707 21.5945 10.9023C21.052 11.7645 19.5861 13.5437 16.6195 13.5437Z" stroke="#F7F7F7" stroke-width="1.22024" stroke-linecap="round" stroke-linejoin="round"/>
<path d="M15.3682 13.5997L11.6398 18.0203C11.5163 18.1626 11.3504 18.2413 11.1781 18.2393L7.44399 18.2461C7.32577 18.246 7.20979 18.2079 7.10842 18.1358C7.00705 18.0637 6.92409 17.9603 6.8684 17.8366C6.81271 17.713 6.78637 17.5738 6.79219 17.4338C6.79802 17.2938 6.83579 17.1583 6.90147 17.0417L8.83491 13.5997" stroke="#F7F7F7" stroke-width="1.22024" stroke-linecap="round" stroke-linejoin="round"/>
<path d="M15.2597 7.39979L11.5313 2.97921C11.4078 2.83687 11.2419 2.75816 11.0696 2.76023L7.33547 2.75339C7.21726 2.75347 7.10127 2.7916 6.9999 2.86372C6.89853 2.93583 6.81558 3.03922 6.75988 3.16286C6.70419 3.28649 6.67785 3.42574 6.68368 3.56573C6.6895 3.70573 6.72727 3.84122 6.79296 3.95776L8.7264 7.39979" stroke="#F7F7F7" stroke-width="1.22024" stroke-linecap="round" stroke-linejoin="round"/>
<path d="M5.52198 12.4559C3.14413 13.2086 0.950977 10.6082 0.950977 10.6082C0.950977 10.6082 3.14413 8.0079 5.52198 8.76063" stroke="#F7F7F7" stroke-width="1.22024" stroke-linecap="round" stroke-linejoin="round"/>
</svg>
