<svg width="272" height="271" viewBox="0 0 272 271" fill="none" xmlns="http://www.w3.org/2000/svg">
<path d="M271.056 135.651C271.056 210.276 210.456 270.876 135.831 270.876C61.2055 270.876 0.605469 210.276 0.605469 135.651C0.605469 61.0258 61.2055 0.425781 135.831 0.425781C210.456 0.425781 271.056 60.7612 271.056 135.651Z" fill="#83A3F8"/>
<path d="M239.301 48.5882C214.426 18.9498 177.378 0.425781 135.831 0.425781C61.2055 0.425781 0.605469 61.0258 0.605469 135.651C0.605469 151.264 3.25175 166.348 8.2797 180.373C84.4928 135.122 161.5 90.9288 239.301 48.5882Z" fill="#ACC1FA"/>
<path d="M236.393 133.53C236.393 190.426 190.348 236.471 133.452 236.471C76.5571 236.471 30.5117 190.426 30.5117 133.53C30.5117 76.6353 76.5571 30.5898 133.452 30.5898C190.348 30.5898 236.393 76.6353 236.393 133.53Z" fill="#3065F3"/>
<path d="M239.303 137.764C239.303 193.865 193.787 239.117 137.951 239.117C81.8492 239.117 36.5977 193.601 36.5977 137.764C36.5977 81.6628 82.1138 36.4113 137.951 36.4113C194.052 36.1467 239.303 81.6628 239.303 137.764Z" fill="#5984F5"/>
<g filter="url(#filter0_i_7107_87105)">
<path fill-rule="evenodd" clip-rule="evenodd" d="M93.9118 94.0358C92.9387 94.0358 92.1498 94.8263 92.1498 95.8015V106.537C92.1498 107.512 92.9387 108.303 93.9118 108.303H122.103C125.022 108.303 127.389 110.674 127.389 113.6C127.389 116.526 125.022 118.897 122.103 118.897H93.9118C87.1001 118.897 81.5781 113.363 81.5781 106.537V95.8015C81.5781 88.9752 87.1001 83.4414 93.9118 83.4414H175.666C182.478 83.4414 188 88.9752 188 95.8015V106.537C188 113.363 182.478 118.897 175.666 118.897H152.479V190.303C152.479 197.129 146.957 202.663 140.145 202.663H129.997C123.185 202.663 117.663 197.129 117.663 190.303V132.591C117.663 129.665 120.029 127.294 122.949 127.294C125.868 127.294 128.235 129.665 128.235 132.591V190.303C128.235 191.278 129.023 192.069 129.997 192.069H140.145C141.118 192.069 141.907 191.278 141.907 190.303V114.024C141.907 112.847 142.29 111.76 142.938 110.881C143.862 109.336 145.548 108.303 147.475 108.303H175.666C176.639 108.303 177.428 107.512 177.428 106.537V95.8015C177.428 94.8263 176.639 94.0358 175.666 94.0358H93.9118Z" fill="white"/>
</g>
<defs>
<filter id="filter0_i_7107_87105" x="81.5781" y="83.4414" width="108.422" height="119.223" filterUnits="userSpaceOnUse" color-interpolation-filters="sRGB">
<feFlood flood-opacity="0" result="BackgroundImageFix"/>
<feBlend mode="normal" in="SourceGraphic" in2="BackgroundImageFix" result="shape"/>
<feColorMatrix in="SourceAlpha" type="matrix" values="0 0 0 0 0 0 0 0 0 0 0 0 0 0 0 0 0 0 127 0" result="hardAlpha"/>
<feOffset dx="2"/>
<feGaussianBlur stdDeviation="2"/>
<feComposite in2="hardAlpha" operator="arithmetic" k2="-1" k3="1"/>
<feColorMatrix type="matrix" values="0 0 0 0 0.188235 0 0 0 0 0.396078 0 0 0 0 0.952941 0 0 0 0.5 0"/>
<feBlend mode="normal" in2="shape" result="effect1_innerShadow_7107_87105"/>
</filter>
</defs>
</svg>
