<svg width="22" height="22" viewBox="0 0 22 22" fill="none" xmlns="http://www.w3.org/2000/svg">
<path d="M5.5 13.75C7.01878 13.75 8.25 12.5188 8.25 11C8.25 9.48122 7.01878 8.25 5.5 8.25C3.98122 8.25 2.75 9.48122 2.75 11C2.75 12.5188 3.98122 13.75 5.5 13.75Z" stroke="#49536E" stroke-width="1.35714" stroke-linecap="round" stroke-linejoin="round"/>
<path d="M15.125 19.9375C16.6438 19.9375 17.875 18.7063 17.875 17.1875C17.875 15.6687 16.6438 14.4375 15.125 14.4375C13.6062 14.4375 12.375 15.6687 12.375 17.1875C12.375 18.7063 13.6062 19.9375 15.125 19.9375Z" stroke="#49536E" stroke-width="1.35714" stroke-linecap="round" stroke-linejoin="round"/>
<path d="M15.125 7.5625C16.6438 7.5625 17.875 6.33128 17.875 4.8125C17.875 3.29372 16.6438 2.0625 15.125 2.0625C13.6062 2.0625 12.375 3.29372 12.375 4.8125C12.375 6.33128 13.6062 7.5625 15.125 7.5625Z" stroke="#49536E" stroke-width="1.35714" stroke-linecap="round" stroke-linejoin="round"/>
<path d="M12.8141 6.30078L7.8125 9.51484" stroke="#49536E" stroke-width="1.35714" stroke-linecap="round" stroke-linejoin="round"/>
<path d="M7.8125 12.4883L12.8141 15.7023" stroke="#49536E" stroke-width="1.35714" stroke-linecap="round" stroke-linejoin="round"/>
</svg>
