<svg width="40" height="40" viewBox="0 0 40 40" fill="none" xmlns="http://www.w3.org/2000/svg">
<path d="M31.875 21.25H38.125" stroke="#121212" stroke-width="2.5" stroke-linecap="round" stroke-linejoin="round"/>
<path d="M35 18.125V24.375" stroke="#121212" stroke-width="2.5" stroke-linecap="round" stroke-linejoin="round"/>
<path d="M16.875 25C22.0527 25 26.25 20.8027 26.25 15.625C26.25 10.4473 22.0527 6.25 16.875 6.25C11.6973 6.25 7.5 10.4473 7.5 15.625C7.5 20.8027 11.6973 25 16.875 25Z" stroke="#121212" stroke-width="3.75" stroke-linecap="round" stroke-linejoin="round"/>
<path d="M3.46875 31.2498C5.11134 29.2921 7.16276 27.7179 9.47885 26.6378C11.7949 25.5577 14.3195 24.998 16.875 24.998C19.4305 24.998 21.9551 25.5577 24.2712 26.6378C26.5872 27.7179 28.6387 29.2921 30.2813 31.2498" stroke="#121212" stroke-width="3.75" stroke-linecap="round" stroke-linejoin="round"/>
</svg>
