<svg width="19" height="19" viewBox="0 0 19 19" fill="none" xmlns="http://www.w3.org/2000/svg">
<g clip-path="url(#clip0_1462_20088)">
<path d="M15.388 3.92558C14.296 3.42452 13.125 3.05537 11.9006 2.84394C11.8783 2.83985 11.8561 2.85005 11.8446 2.87045C11.694 3.13831 11.5272 3.48775 11.4103 3.76241C10.0935 3.56526 8.78334 3.56526 7.49346 3.76241C7.37662 3.48164 7.20375 3.13831 7.05247 2.87045C7.04098 2.85073 7.01871 2.84053 6.99641 2.84394C5.77272 3.05469 4.60172 3.42385 3.50904 3.92558C3.49958 3.92966 3.49147 3.93646 3.48609 3.9453C1.26493 7.26366 0.656464 10.5005 0.954958 13.6971C0.956308 13.7128 0.965087 13.7277 0.977244 13.7372C2.4427 14.8134 3.86224 15.4668 5.25543 15.8998C5.27772 15.9066 5.30135 15.8985 5.31554 15.8801C5.6451 15.4301 5.93887 14.9555 6.19075 14.4565C6.20561 14.4273 6.19142 14.3926 6.16104 14.381C5.69507 14.2043 5.25137 13.9888 4.82457 13.744C4.79081 13.7243 4.7881 13.676 4.81916 13.6529C4.90898 13.5856 4.99882 13.5156 5.08458 13.4449C5.1001 13.432 5.12172 13.4292 5.13996 13.4374C7.94389 14.7176 10.9795 14.7176 13.7503 13.4374C13.7686 13.4286 13.7902 13.4313 13.8064 13.4442C13.8922 13.5149 13.982 13.5856 14.0725 13.6529C14.1035 13.676 14.1015 13.7243 14.0678 13.744C13.641 13.9935 13.1973 14.2043 12.7306 14.3804C12.7002 14.3919 12.6867 14.4273 12.7016 14.4565C12.9589 14.9548 13.2526 15.4294 13.5761 15.8794C13.5896 15.8985 13.6139 15.9066 13.6362 15.8998C15.0362 15.4668 16.4557 14.8134 17.9212 13.7372C17.934 13.7277 17.9421 13.7134 17.9434 13.6978C18.3007 10.0021 17.3451 6.79185 15.4103 3.94597C15.4056 3.93646 15.3975 3.92966 15.388 3.92558ZM6.60947 11.7507C5.76529 11.7507 5.06971 10.9757 5.06971 10.0239C5.06971 9.07206 5.7518 8.29705 6.60947 8.29705C7.47387 8.29705 8.16271 9.07887 8.1492 10.0239C8.1492 10.9757 7.46711 11.7507 6.60947 11.7507ZM12.3024 11.7507C11.4583 11.7507 10.7627 10.9757 10.7627 10.0239C10.7627 9.07206 11.4448 8.29705 12.3024 8.29705C13.1669 8.29705 13.8557 9.07887 13.8422 10.0239C13.8422 10.9757 13.1669 11.7507 12.3024 11.7507Z" fill="#9A9A9A"/>
</g>
<defs>
<clipPath id="clip0_1462_20088">
<rect width="17.1331" height="17.1331" fill="white" transform="translate(0.884155 0.95929)"/>
</clipPath>
</defs>
</svg>
