<svg width="25" height="24" viewBox="0 0 25 24" fill="none" xmlns="http://www.w3.org/2000/svg">
<path d="M5.60938 18.8906C4.74688 18.0281 5.31875 16.2187 4.87813 15.1594C4.4375 14.1 2.75 13.1719 2.75 12C2.75 10.8281 4.41875 9.9375 4.87813 8.84063C5.3375 7.74375 4.74688 5.97187 5.60938 5.10938C6.47187 4.24688 8.28125 4.81875 9.34063 4.37813C10.4 3.9375 11.3281 2.25 12.5 2.25C13.6719 2.25 14.5625 3.91875 15.6594 4.37813C16.7562 4.8375 18.5281 4.24688 19.3906 5.10938C20.2531 5.97187 19.6813 7.78125 20.1219 8.84063C20.5625 9.9 22.25 10.8281 22.25 12C22.25 13.1719 20.5813 14.0625 20.1219 15.1594C19.6625 16.2562 20.2531 18.0281 19.3906 18.8906C18.5281 19.7531 16.7187 19.1813 15.6594 19.6219C14.6 20.0625 13.6719 21.75 12.5 21.75C11.3281 21.75 10.4375 20.0813 9.34063 19.6219C8.24375 19.1625 6.47187 19.7531 5.60938 18.8906Z" stroke="#FF3236" stroke-width="1.71429" stroke-linecap="round" stroke-linejoin="round"/>
<path d="M12.5 7.5V12.75" stroke="#FF3236" stroke-width="1.71429" stroke-linecap="round" stroke-linejoin="round"/>
<path d="M12.5 17.25C13.1213 17.25 13.625 16.7463 13.625 16.125C13.625 15.5037 13.1213 15 12.5 15C11.8787 15 11.375 15.5037 11.375 16.125C11.375 16.7463 11.8787 17.25 12.5 17.25Z" fill="#FF3236"/>
</svg>
