<svg width="53" height="24" viewBox="0 0 53 24" fill="none" xmlns="http://www.w3.org/2000/svg">
<rect width="53" height="24" rx="4" fill="#DCE3FF"/>
<path d="M11.5293 4.08615V4.09403C11.5371 4.13344 11.5371 4.18073 11.5371 4.22802V9.91078C11.5293 9.9423 11.5056 9.95018 11.482 9.96595C11.3164 10.0448 11.1588 10.1157 10.9933 10.1866C10.7647 10.2891 10.5283 10.3994 10.2997 10.5019L9.47211 10.8802C9.24354 10.9827 9.01497 11.0852 8.79428 11.1876C8.5263 11.3137 8.25044 11.432 7.98245 11.5581C7.75388 11.6605 7.52531 11.7709 7.28886 11.8733C7.0997 11.96 6.91053 12.0389 6.72925 12.1256C6.71349 12.1334 6.69773 12.1413 6.68196 12.1413C6.67408 12.1413 6.67408 12.1413 6.6662 12.1334L6.87901 11.7788C7.28886 11.1009 7.69083 10.431 8.10068 9.75314C8.53418 9.02802 8.97556 8.30289 9.40906 7.57777C9.81103 6.90782 10.2209 6.23787 10.6228 5.56792C10.9145 5.07925 11.214 4.59058 11.5056 4.10191C11.5135 4.08615 11.5214 4.07826 11.5214 4.0625H11.5293C11.5214 4.07038 11.5293 4.07826 11.5293 4.08615Z" fill="#8A92B2"/>
<path d="M16.3672 12.1328L16.3751 12.1407L15.2165 12.8264L11.5751 14.9781C11.5593 14.986 11.5436 14.9939 11.5357 15.0018C11.512 15.0018 11.512 14.9781 11.512 14.9703V14.8993V10.0284C11.512 10.0047 11.512 9.97322 11.5199 9.94957C11.5278 9.91804 11.5514 9.92593 11.5751 9.93381C11.6775 9.9811 11.7879 10.0284 11.8903 10.0757C12.1977 10.2176 12.5051 10.3594 12.8125 10.4934C13.0805 10.6116 13.3406 10.7377 13.6086 10.856C13.8766 10.9742 14.1445 11.1003 14.4125 11.2185C14.6411 11.321 14.8775 11.4313 15.1061 11.5338C15.3347 11.6363 15.5711 11.7466 15.7997 11.8491C15.981 11.9279 16.1623 12.0146 16.3436 12.0934C16.3436 12.1171 16.3514 12.1249 16.3672 12.1328Z" fill="#454A75"/>
<path d="M11.5293 19.8968C11.5293 19.9047 11.5214 19.9126 11.5214 19.9205H11.5135C11.5135 19.9047 11.4977 19.8968 11.4898 19.8811C11.0012 19.1954 10.5125 18.5018 10.0238 17.816C9.52728 17.1146 9.02285 16.4052 8.5263 15.7037C8.04551 15.0259 7.55684 14.3402 7.07605 13.6624C6.94994 13.4811 6.82383 13.3077 6.69773 13.1264C6.68984 13.1106 6.68196 13.1027 6.6662 13.0791C6.68984 13.0791 6.70561 13.0949 6.71349 13.1027C7.3992 13.5047 8.07704 13.9067 8.76275 14.3087C9.55093 14.7737 10.3312 15.2387 11.1194 15.7037L11.5214 15.9402C11.5371 15.9559 11.5371 15.9717 11.5371 15.9875V19.7865C11.5371 19.8259 11.5371 19.8653 11.5293 19.8968Z" fill="#8A92B2"/>
<path d="M6.65784 12.1494V12.1415C6.91005 12.0312 7.15439 11.913 7.40661 11.8026C7.72976 11.6529 8.05291 11.511 8.37606 11.3612C8.6204 11.2509 8.87261 11.1327 9.11695 11.0223C9.47951 10.8568 9.83419 10.6992 10.1968 10.5337C10.4411 10.4233 10.6854 10.313 10.9376 10.1947C11.111 10.1159 11.2923 10.0371 11.4657 9.95828C11.4815 9.9504 11.5051 9.94252 11.513 9.92676C11.5209 9.92676 11.5209 9.93464 11.513 9.94252V14.9474C11.513 14.9711 11.5051 14.9947 11.5209 15.0105C11.5051 15.0341 11.4894 15.0105 11.4815 15.0026C11.4105 14.9632 11.3396 14.9238 11.2687 14.8765C9.74749 13.978 8.21843 13.0716 6.69725 12.1731C6.68936 12.1652 6.6736 12.1573 6.65784 12.1494Z" fill="#62688F"/>
<path d="M16.3519 13.0791H16.3597C16.3597 13.0949 16.344 13.1106 16.3361 13.1264C14.8858 15.1678 13.4356 17.217 11.9853 19.2584C11.8356 19.4712 11.678 19.684 11.5282 19.8968C11.5203 19.889 11.5203 19.8811 11.5203 19.8732V19.8259V16.0032V15.9323C11.8514 15.7353 12.1745 15.5461 12.5055 15.3491C13.7824 14.5924 15.0592 13.8436 16.3282 13.087C16.3361 13.0949 16.344 13.087 16.3519 13.0791Z" fill="#62688F"/>
<path d="M11.5194 9.94203V9.92626V9.87897V4.1568C11.5194 4.13316 11.5115 4.1174 11.5273 4.09375C13.1273 6.74991 14.7273 9.39818 16.3194 12.0543C16.3352 12.078 16.3588 12.1095 16.3667 12.141C16.2564 12.1016 16.1539 12.0465 16.0514 11.9992C15.9253 11.944 15.7913 11.8809 15.6652 11.8258C15.5864 11.7864 15.4997 11.7548 15.4209 11.7154C15.2869 11.6524 15.1529 11.5972 15.0189 11.5341C14.9401 11.5026 14.8613 11.4632 14.7825 11.4238L14.2623 11.1873C14.1756 11.1479 14.0889 11.1085 13.9943 11.0691L13.616 10.9036C13.5372 10.8721 13.4583 10.8327 13.3795 10.7933L12.8593 10.5568C12.7726 10.5174 12.6859 10.478 12.5913 10.4386L12.213 10.2731C12.1263 10.2337 12.0475 10.1942 11.9608 10.1548C11.8111 10.0839 11.6613 10.013 11.5037 9.94991C11.5273 9.94203 11.5194 9.94203 11.5194 9.94203Z" fill="#62688F"/>
<path d="M24.6449 17V7.54545H30.3509V8.56108H25.7898V11.7557H30.0554V12.7713H25.7898V15.9844H30.4247V17H24.6449ZM31.8974 8.56108V7.54545H38.9883V8.56108H36.0153V17H34.8704V8.56108H31.8974ZM40.7552 17V7.54545H41.9001V11.7557H46.9413V7.54545H48.0862V17H46.9413V12.7713H41.9001V17H40.7552Z" fill="black"/>
</svg>
