<svg width="18" height="18" viewBox="0 0 18 18" fill="none" xmlns="http://www.w3.org/2000/svg">
<path d="M6.79001 12.2389H11.21C10.7674 14.5742 9.8812 16.1639 8.99999 16.1639C8.14548 16.1639 7.28627 14.6691 6.83145 12.4491L6.79001 12.2389H11.21H6.79001ZM2.62207 12.239L5.69576 12.2388C5.95617 13.7253 6.39755 14.9899 6.97517 15.8749C5.14562 15.3346 3.62245 14.0819 2.72654 12.4381L2.62207 12.239ZM12.3042 12.2388L15.3779 12.239C14.4989 13.9806 12.9275 15.313 11.0255 15.8747C11.5642 15.0483 11.9844 13.8918 12.2498 12.5331L12.3042 12.2388L15.3779 12.239L12.3042 12.2388ZM12.5204 7.59867L15.9971 7.59823C16.0907 8.05962 16.1399 8.53716 16.1399 9.02619C16.1399 9.77243 16.0254 10.4919 15.813 11.1681H12.4559C12.5311 10.4845 12.5705 9.76627 12.5705 9.02619C12.5705 8.70186 12.5629 8.38173 12.5481 8.06687L12.5204 7.59867L15.9971 7.59823L12.5204 7.59867ZM2.00293 7.59823L5.47953 7.59867C5.44652 8.06265 5.4295 8.5397 5.4295 9.02619C5.4295 9.61826 5.4547 10.1963 5.50327 10.7539L5.54405 11.1681H2.18695C1.97459 10.4919 1.86011 9.77243 1.86011 9.02619C1.86011 8.53716 1.90927 8.05962 2.00293 7.59823ZM6.55531 7.59826H11.4447C11.4805 8.05916 11.4997 8.53664 11.4997 9.02619C11.4997 9.62417 11.4711 10.2041 11.4184 10.7579L11.3744 11.1681H6.6256C6.5449 10.493 6.50031 9.77366 6.50031 9.02619C6.50031 8.65902 6.51107 8.29866 6.53158 7.94697L6.55531 7.59826H11.4447H6.55531ZM11.1018 2.29902L11.0248 2.1775C13.1795 2.81354 14.91 4.43876 15.6904 6.52738L12.4131 6.52759C12.1878 4.8022 11.7303 3.32042 11.1018 2.29902L11.0248 2.1775L11.1018 2.29902ZM6.88818 2.20378L6.97512 2.17752C6.34636 3.14091 5.87905 4.55411 5.63087 6.2136L5.58691 6.52759L2.30958 6.52738C3.07947 4.46694 4.77393 2.85748 6.88818 2.20378L6.97512 2.17752L6.88818 2.20378ZM8.99999 1.88846C9.94145 1.88846 10.8886 3.70296 11.2944 6.30268L11.3278 6.52741H6.67216C7.05724 3.80812 8.03163 1.88846 8.99999 1.88846Z" fill="#9A9A9A"/>
</svg>
