<svg width="21" height="21" viewBox="0 0 21 21" fill="none" xmlns="http://www.w3.org/2000/svg">
<path d="M10.6665 0.8125C5.32471 0.8125 0.979004 5.15821 0.979004 10.5C0.979004 15.8418 5.32471 20.1875 10.6665 20.1875C16.0083 20.1875 20.354 15.8418 20.354 10.5C20.354 5.1582 16.0083 0.8125 10.6665 0.8125ZM14.8245 12.4542C14.8781 11.8096 14.9075 11.1548 14.9075 10.5C14.9075 9.84517 14.8781 9.19041 14.8245 8.54581C17.2105 9.06529 18.479 9.95629 18.479 10.5C18.479 11.0437 17.2105 11.9347 14.8245 12.4542ZM10.6665 18.3125C10.1228 18.3125 9.2318 17.044 8.71231 14.658C9.35692 14.7116 10.0117 14.741 10.6665 14.741C11.3213 14.741 11.9761 14.7116 12.6207 14.658C12.1012 17.044 11.2102 18.3125 10.6665 18.3125ZM10.6665 12.866C9.85386 12.866 9.10744 12.8222 8.41545 12.7511C8.3443 12.0591 8.30048 11.3126 8.30048 10.5C8.30048 9.68736 8.34431 8.94093 8.41545 8.24895C9.10744 8.17781 9.85386 8.13398 10.6665 8.13398C11.4791 8.13398 12.2256 8.17781 12.9176 8.24895C12.9887 8.94094 13.0325 9.68736 13.0325 10.5C13.0325 11.3126 12.9887 12.0591 12.9176 12.7511C12.2256 12.8222 11.4791 12.866 10.6665 12.866ZM2.854 10.5C2.854 9.95629 4.12247 9.06529 6.50848 8.54581C6.45489 9.19041 6.42548 9.84517 6.42548 10.5C6.42548 11.1548 6.45489 11.8096 6.50848 12.4542C4.12247 11.9347 2.854 11.0437 2.854 10.5ZM10.6665 2.6875C11.2102 2.6875 12.1012 3.95596 12.6207 6.34198C11.9761 6.28838 11.3213 6.25898 10.6665 6.25898C10.0117 6.25898 9.35692 6.28839 8.71231 6.34198C9.2318 3.95596 10.1228 2.6875 10.6665 2.6875ZM17.9127 7.59454C16.9743 7.15093 15.8233 6.81878 14.571 6.59547C14.3477 5.34322 14.0156 4.19221 13.572 3.25376C15.5447 4.04771 17.1188 5.62176 17.9127 7.59454ZM7.76104 3.25379C7.31743 4.19225 6.98529 5.34326 6.76197 6.59547C5.50976 6.81878 4.35875 7.15085 3.4203 7.5945C4.21425 5.62173 5.78831 4.04774 7.76104 3.25379ZM3.42034 13.4055C4.35879 13.8491 5.50976 14.1812 6.76197 14.4045C6.98529 15.6567 7.31735 16.8077 7.761 17.7462C5.78831 16.9522 4.21429 15.3782 3.42034 13.4055ZM13.572 17.7462C14.0157 16.8077 14.3477 15.6567 14.571 14.4045C15.8232 14.1812 16.9743 13.8491 17.9127 13.4055C17.1188 15.3782 15.5448 16.9523 13.572 17.7462Z" fill="white"/>
</svg>
