<svg width="33" height="44" viewBox="0 0 33 44" fill="none" xmlns="http://www.w3.org/2000/svg">
<g filter="url(#filter0_d_1462_18769)">
<path d="M12.8965 25.9773L16.6021 28.1167L9.07721 41.1502L6.91742 36.3334L12.8965 25.9773Z" fill="#CE4444"/>
<path d="M12.8965 25.9773L9.1909 23.8379L1.66604 36.8713L6.91742 36.3334L12.8965 25.9773Z" fill="#983535"/>
<path d="M18.1816 25.9773L14.4761 28.1167L22.0009 41.1502L24.1607 36.3333L18.1816 25.9773Z" fill="#983535"/>
<path d="M18.1816 25.9773L21.8872 23.8379L29.4121 36.8713L24.1607 36.3334L18.1816 25.9773Z" fill="#CE4444"/>
<circle cx="15.4253" cy="17.0031" r="12.87" fill="url(#paint0_linear_1462_18769)" stroke="#765C00" stroke-width="0.224788"/>
<circle cx="15.4254" cy="17.0031" r="9.95848" fill="#A88300"/>
<mask id="mask0_1462_18769" style="mask-type:alpha" maskUnits="userSpaceOnUse" x="5" y="8" width="21" height="21">
<circle cx="15.9563" cy="18.0664" r="9.98166" fill="#C28B37"/>
</mask>
<g mask="url(#mask0_1462_18769)">
<circle cx="15.4249" cy="17.0033" r="9.98166" fill="#C09525"/>
</g>
<path d="M15.4792 10.059L17.6324 14.3654L21.9388 14.9037L18.9817 18.2196L19.7856 22.9781L15.4792 20.8249L11.1728 22.9781L11.9839 18.2196L9.01965 14.9037L13.326 14.3654L15.4792 10.059Z" fill="url(#paint1_linear_1462_18769)"/>
<path d="M3.08977 9.26939L4.49369 6.17959L3.08977 3.0898L6.17957 4.49372L9.26936 3.0898L7.86544 6.17959L9.26936 9.26939L6.17957 7.86547L3.08977 9.26939Z" fill="white"/>
</g>
<defs>
<filter id="filter0_d_1462_18769" x="1.48989" y="2.91366" width="30.564" height="40.8783" filterUnits="userSpaceOnUse" color-interpolation-filters="sRGB">
<feFlood flood-opacity="0" result="BackgroundImageFix"/>
<feColorMatrix in="SourceAlpha" type="matrix" values="0 0 0 0 0 0 0 0 0 0 0 0 0 0 0 0 0 0 127 0" result="hardAlpha"/>
<feOffset dx="1.23285" dy="1.23285"/>
<feGaussianBlur stdDeviation="0.704485"/>
<feComposite in2="hardAlpha" operator="out"/>
<feColorMatrix type="matrix" values="0 0 0 0 0 0 0 0 0 0 0 0 0 0 0 0 0 0 0.3 0"/>
<feBlend mode="normal" in2="BackgroundImageFix" result="effect1_dropShadow_1462_18769"/>
<feBlend mode="normal" in="SourceGraphic" in2="effect1_dropShadow_1462_18769" result="shape"/>
</filter>
<linearGradient id="paint0_linear_1462_18769" x1="15.4253" y1="4.24548" x2="15.4253" y2="29.7607" gradientUnits="userSpaceOnUse">
<stop stop-color="#FFC600"/>
<stop offset="1" stop-color="#FFDE69"/>
</linearGradient>
<linearGradient id="paint1_linear_1462_18769" x1="15.4792" y1="10.059" x2="15.4792" y2="22.9781" gradientUnits="userSpaceOnUse">
<stop stop-color="#FFFCDD"/>
<stop offset="1" stop-color="#FFE896"/>
</linearGradient>
</defs>
</svg>
