<svg width="18" height="18" viewBox="0 0 18 18" fill="none" xmlns="http://www.w3.org/2000/svg">
<path fill-rule="evenodd" clip-rule="evenodd" d="M7.75033 14.8326C3.83831 14.8326 0.666992 11.6613 0.666992 7.74929C0.666992 3.83727 3.83831 0.665955 7.75033 0.665955C11.6623 0.665955 14.8337 3.83727 14.8337 7.74929C14.8337 9.40528 14.2654 10.9285 13.3132 12.1347L17.0896 15.9111C17.4151 16.2366 17.4151 16.7642 17.0896 17.0897C16.7642 17.4151 16.2366 17.4151 15.9111 17.0897L12.1346 13.3131C10.9286 14.2647 9.40578 14.8326 7.75033 14.8326ZM11.5324 11.6269C10.5562 12.5792 9.22181 13.166 7.75033 13.166C4.75878 13.166 2.33366 10.7408 2.33366 7.74929C2.33366 4.75775 4.75878 2.33262 7.75033 2.33262C10.7419 2.33262 13.167 4.75775 13.167 7.74929C13.167 9.22123 12.5799 10.5561 11.627 11.5323C11.6102 11.5467 11.5937 11.5619 11.5778 11.5778C11.5619 11.5937 11.5468 11.6101 11.5324 11.6269Z" fill="url(#paint0_linear_1686_28452)"/>
<defs>
<linearGradient id="paint0_linear_1686_28452" x1="0.666992" y1="8.99984" x2="17.3337" y2="8.99984" gradientUnits="userSpaceOnUse">
<stop stop-color="#5E1ED1"/>
<stop offset="1" stop-color="#3065F3"/>
</linearGradient>
</defs>
</svg>
