<svg width="96" height="25" viewBox="0 0 96 25" fill="none" xmlns="http://www.w3.org/2000/svg">
<path d="M0.136364 4.78409V0.727272H19.25V4.78409H12.125V24H7.26136V4.78409H0.136364ZM24.3343 24V6.54545H29.0275V9.59091H29.2093C29.5275 8.50758 30.0616 7.68939 30.8116 7.13636C31.5616 6.57576 32.4252 6.29545 33.4025 6.29545C33.6449 6.29545 33.9063 6.31061 34.1866 6.34091C34.4669 6.37121 34.7131 6.41288 34.9252 6.46591V10.7614C34.698 10.6932 34.3836 10.6326 33.982 10.5795C33.5805 10.5265 33.2131 10.5 32.8798 10.5C32.1677 10.5 31.5313 10.6553 30.9707 10.9659C30.4177 11.2689 29.9783 11.6932 29.6525 12.2386C29.3343 12.7841 29.1752 13.4129 29.1752 14.125V24H24.3343ZM52.4613 16.5682V6.54545H57.3022V24H52.6544V20.8295H52.4726C52.0787 21.8523 51.4234 22.6742 50.5067 23.2955C49.5976 23.9167 48.4878 24.2273 47.1772 24.2273C46.0105 24.2273 44.984 23.9621 44.0976 23.4318C43.2113 22.9015 42.5181 22.1477 42.0181 21.1705C41.5256 20.1932 41.2756 19.0227 41.2681 17.6591V6.54545H46.109V16.7955C46.1166 17.8258 46.3931 18.6402 46.9385 19.2386C47.484 19.8371 48.215 20.1364 49.1317 20.1364C49.715 20.1364 50.2605 20.0038 50.7681 19.7386C51.2756 19.4659 51.6847 19.0644 51.9953 18.5341C52.3135 18.0038 52.4688 17.3485 52.4613 16.5682ZM74.2984 6.54545V10.1818H63.787V6.54545H74.2984ZM66.1734 2.36364H71.0143V18.6364C71.0143 19.0833 71.0825 19.4318 71.2189 19.6818C71.3552 19.9242 71.5446 20.0947 71.787 20.1932C72.037 20.2917 72.3249 20.3409 72.6507 20.3409C72.878 20.3409 73.1052 20.322 73.3325 20.2841C73.5598 20.2386 73.734 20.2045 73.8552 20.1818L74.6166 23.7841C74.3742 23.8598 74.0333 23.947 73.5939 24.0455C73.1545 24.1515 72.6204 24.2159 71.9916 24.2386C70.8249 24.2841 69.8022 24.1288 68.9234 23.7727C68.0522 23.4167 67.3742 22.8636 66.8893 22.1136C66.4045 21.3636 66.1658 20.4167 66.1734 19.2727V2.36364ZM95.5958 11.5227L91.164 11.7955C91.0882 11.4167 90.9253 11.0758 90.6753 10.7727C90.4253 10.4621 90.0958 10.2159 89.6867 10.0341C89.2852 9.8447 88.8041 9.75 88.2435 9.75C87.4935 9.75 86.8609 9.90909 86.3458 10.2273C85.8306 10.5379 85.5731 10.9545 85.5731 11.4773C85.5731 11.8939 85.7397 12.2462 86.0731 12.5341C86.4064 12.822 86.9784 13.053 87.789 13.2273L90.9481 13.8636C92.645 14.2121 93.9102 14.7727 94.7435 15.5455C95.5769 16.3182 95.9935 17.3333 95.9935 18.5909C95.9935 19.7348 95.6564 20.7386 94.9822 21.6023C94.3155 22.4659 93.3988 23.1402 92.2322 23.625C91.0731 24.1023 89.7359 24.3409 88.2208 24.3409C85.9102 24.3409 84.0693 23.8598 82.6981 22.8977C81.3344 21.928 80.5352 20.6098 80.3003 18.9432L85.0617 18.6932C85.2056 19.3977 85.5541 19.9356 86.1072 20.3068C86.6602 20.6705 87.3685 20.8523 88.2322 20.8523C89.0806 20.8523 89.7625 20.6894 90.2776 20.3636C90.8003 20.0303 91.0655 19.6023 91.0731 19.0795C91.0655 18.6402 90.8799 18.2803 90.5163 18C90.1526 17.7121 89.592 17.4924 88.8344 17.3409L85.8117 16.7386C84.1072 16.3977 82.8382 15.8068 82.0049 14.9659C81.1791 14.125 80.7663 13.053 80.7663 11.75C80.7663 10.6288 81.0693 9.66288 81.6753 8.85227C82.289 8.04167 83.1488 7.41667 84.2549 6.97727C85.3685 6.53788 86.6716 6.31818 88.164 6.31818C90.3685 6.31818 92.1034 6.78409 93.3685 7.71591C94.6413 8.64773 95.3837 9.91667 95.5958 11.5227Z" fill="black"/>
</svg>
