<svg width="31" height="28" viewBox="0 0 31 28" fill="none" xmlns="http://www.w3.org/2000/svg">
<g style="mix-blend-mode:hard-light" opacity="0.6">
<path d="M28.156 3.96888C23.9 5.83555 21.772 8.7102 21.772 12.5929C21.772 14.3102 22.0333 15.4302 22.556 15.9529C23.1533 16.4009 23.9373 16.6249 24.908 16.6249C26.7 16.6249 28.0067 17.0729 28.828 17.9689C29.724 18.8649 30.172 19.9849 30.172 21.3289C30.172 23.1209 29.612 24.5396 28.492 25.5849C27.4467 26.6302 25.9533 27.1529 24.012 27.1529C19.2333 27.1529 16.844 24.6516 16.844 19.6489V15.8409C16.844 11.5849 17.8893 8.18758 19.98 5.64888C22.1453 3.11022 24.8707 1.28089 28.156 0.160889V3.96888ZM11.3804 4.41689C7.04967 6.28358 4.88436 9.1582 4.88436 13.0409C4.88436 14.7582 5.14569 15.8782 5.66836 16.4009C6.26567 16.8489 7.08705 17.0729 8.13236 17.0729C11.567 17.0729 13.2844 18.6409 13.2844 21.7769C13.2844 23.5689 12.7617 24.9876 11.7164 26.0329C10.671 27.0782 9.17767 27.6009 7.23636 27.6009C4.32436 27.6009 2.38303 26.8542 1.41236 25.3609C0.51636 23.8676 0.0683594 22.0756 0.0683594 19.9849V16.2889C0.0683594 11.9582 1.11369 8.56089 3.20436 6.09689C5.36969 3.55822 8.09505 1.72888 11.3804 0.608883V4.41689Z" fill="#4F4F4F"/>
</g>
</svg>
