<svg width="20" height="21" viewBox="0 0 20 21" fill="none" xmlns="http://www.w3.org/2000/svg">
<path fill-rule="evenodd" clip-rule="evenodd" d="M8.74935 16.2588C4.83733 16.2588 1.66602 13.0875 1.66602 9.1755C1.66602 5.26348 4.83733 2.09216 8.74935 2.09216C12.6614 2.09216 15.8327 5.26348 15.8327 9.1755C15.8327 10.8315 15.2644 12.3548 14.3122 13.5609L18.0887 17.3374C18.4141 17.6628 18.4141 18.1904 18.0887 18.5159C17.7632 18.8413 17.2356 18.8413 16.9102 18.5159L13.1336 14.7393C11.9276 15.6909 10.4048 16.2588 8.74935 16.2588ZM12.5315 13.0531C11.5553 14.0054 10.2208 14.5922 8.74935 14.5922C5.75781 14.5922 3.33268 12.167 3.33268 9.1755C3.33268 6.18395 5.75781 3.75883 8.74935 3.75883C11.7409 3.75883 14.166 6.18395 14.166 9.1755C14.166 10.6474 13.5789 11.9823 12.6261 12.9585C12.6092 12.9729 12.5928 12.9881 12.5768 13.004C12.5609 13.0199 12.5458 13.0363 12.5315 13.0531Z" fill="url(#paint0_linear_1696_25297)"/>
<mask id="mask0_1696_25297" style="mask-type:alpha" maskUnits="userSpaceOnUse" x="1" y="2" width="18" height="17">
<path fill-rule="evenodd" clip-rule="evenodd" d="M8.74935 16.2588C4.83733 16.2588 1.66602 13.0875 1.66602 9.1755C1.66602 5.26348 4.83733 2.09216 8.74935 2.09216C12.6614 2.09216 15.8327 5.26348 15.8327 9.1755C15.8327 10.8315 15.2644 12.3548 14.3122 13.5609L18.0887 17.3374C18.4141 17.6628 18.4141 18.1904 18.0887 18.5159C17.7632 18.8413 17.2356 18.8413 16.9102 18.5159L13.1336 14.7393C11.9276 15.6909 10.4048 16.2588 8.74935 16.2588ZM12.5315 13.0531C11.5553 14.0054 10.2208 14.5922 8.74935 14.5922C5.75781 14.5922 3.33268 12.167 3.33268 9.1755C3.33268 6.18395 5.75781 3.75883 8.74935 3.75883C11.7409 3.75883 14.166 6.18395 14.166 9.1755C14.166 10.6474 13.5789 11.9823 12.6261 12.9585C12.6092 12.9729 12.5928 12.9881 12.5768 13.004C12.5609 13.0199 12.5458 13.0363 12.5315 13.0531Z" fill="white"/>
</mask>
<g mask="url(#mask0_1696_25297)">
<rect y="0.426758" width="20" height="20" fill="url(#paint1_linear_1696_25297)"/>
</g>
<defs>
<linearGradient id="paint0_linear_1696_25297" x1="1.66602" y1="10.4261" x2="18.3327" y2="10.4261" gradientUnits="userSpaceOnUse">
<stop stop-color="#5E1ED1"/>
<stop offset="1" stop-color="#3065F3"/>
</linearGradient>
<linearGradient id="paint1_linear_1696_25297" x1="0" y1="10.4268" x2="20" y2="10.4268" gradientUnits="userSpaceOnUse">
<stop stop-color="#5E1ED1"/>
<stop offset="1" stop-color="#3065F3"/>
</linearGradient>
</defs>
</svg>
