<svg width="20" height="21" viewBox="0 0 20 21" fill="none" xmlns="http://www.w3.org/2000/svg">
<path fill-rule="evenodd" clip-rule="evenodd" d="M8.7499 16.4063C4.83788 16.4063 1.66656 13.235 1.66656 9.32296C1.66656 5.41094 4.83788 2.23962 8.7499 2.23962C12.6619 2.23962 15.8332 5.41094 15.8332 9.32296C15.8332 10.979 15.265 12.5022 14.3128 13.7084L18.0892 17.4848C18.4147 17.8103 18.4147 18.3379 18.0892 18.6633C17.7638 18.9888 17.2361 18.9888 16.9107 18.6633L13.1342 14.8868C11.9282 15.8384 10.4054 16.4063 8.7499 16.4063ZM12.532 13.2006C11.5558 14.1529 10.2214 14.7396 8.7499 14.7396C5.75836 14.7396 3.33323 12.3145 3.33323 9.32296C3.33323 6.33141 5.75836 3.90629 8.7499 3.90629C11.7414 3.90629 14.1666 6.33141 14.1666 9.32296C14.1666 10.7949 13.5794 12.1297 12.6266 13.106C12.6097 13.1204 12.5933 13.1355 12.5774 13.1515C12.5615 13.1674 12.5464 13.1838 12.532 13.2006Z" fill="url(#paint0_linear_1491_129)"/>
<mask id="mask0_1491_129" style="mask-type:alpha" maskUnits="userSpaceOnUse" x="1" y="2" width="18" height="17">
<path fill-rule="evenodd" clip-rule="evenodd" d="M8.7499 16.4063C4.83788 16.4063 1.66656 13.235 1.66656 9.32296C1.66656 5.41094 4.83788 2.23962 8.7499 2.23962C12.6619 2.23962 15.8332 5.41094 15.8332 9.32296C15.8332 10.979 15.265 12.5022 14.3128 13.7084L18.0892 17.4848C18.4147 17.8103 18.4147 18.3379 18.0892 18.6633C17.7638 18.9888 17.2361 18.9888 16.9107 18.6633L13.1342 14.8868C11.9282 15.8384 10.4054 16.4063 8.7499 16.4063ZM12.532 13.2006C11.5558 14.1529 10.2214 14.7396 8.7499 14.7396C5.75836 14.7396 3.33323 12.3145 3.33323 9.32296C3.33323 6.33141 5.75836 3.90629 8.7499 3.90629C11.7414 3.90629 14.1666 6.33141 14.1666 9.32296C14.1666 10.7949 13.5794 12.1297 12.6266 13.106C12.6097 13.1204 12.5933 13.1355 12.5774 13.1515C12.5615 13.1674 12.5464 13.1838 12.532 13.2006Z" fill="white"/>
</mask>
<g mask="url(#mask0_1491_129)">
<rect x="-0.00012207" y="0.574219" width="20" height="20" fill="#F7F7F7"/>
</g>
<defs>
<linearGradient id="paint0_linear_1491_129" x1="1.66656" y1="10.5735" x2="18.3333" y2="10.5735" gradientUnits="userSpaceOnUse">
<stop stop-color="#5E1ED1"/>
<stop offset="1" stop-color="#3065F3"/>
</linearGradient>
</defs>
</svg>
