<svg width="20" height="19" viewBox="0 0 20 19" fill="none" xmlns="http://www.w3.org/2000/svg">
<path d="M4.4635 1.83281H7.78336C8.18032 1.83281 8.50211 2.15461 8.50211 2.55156C8.50211 2.91544 8.23172 3.21616 7.88089 3.26375L7.78336 3.27031H4.4635C3.32226 3.27031 2.38809 4.15692 2.31223 5.27893L2.30725 5.42656V14.5307C2.30725 15.672 3.19386 16.6061 4.31587 16.682L4.4635 16.687H13.5684C14.7096 16.687 15.6438 15.8004 15.7196 14.6784L15.7246 14.5307V14.0537C15.7246 13.6567 16.0464 13.3349 16.4434 13.3349C16.8072 13.3349 17.108 13.6053 17.1556 13.9562L17.1621 14.0537V14.5307C17.1621 16.4515 15.6553 18.0203 13.7592 18.1195L13.5684 18.1245H4.4635C2.54275 18.1245 0.973947 16.6176 0.874732 14.7216L0.869751 14.5307V5.42656C0.869751 3.50581 2.3766 1.93701 4.27264 1.83779L4.4635 1.83281H7.78336H4.4635ZM11.8944 4.24767V1.59323C11.8944 0.995257 12.5717 0.673178 13.0319 1.00846L13.1107 1.07452L18.8555 6.58494C19.1236 6.8421 19.148 7.25517 18.9287 7.54072L18.8556 7.62227L13.1108 13.1345C12.6793 13.5485 11.9779 13.2827 11.9013 12.7184L11.8944 12.6158V10.0041L11.5652 10.0329C9.26553 10.2728 7.06132 11.3087 4.93879 13.1578C4.44131 13.5912 3.67164 13.1814 3.75346 12.5267C4.39055 7.42881 7.05651 4.61897 11.6075 4.2665L11.8944 4.24767V1.59323V4.24767ZM13.3319 3.2786V4.9474C13.3319 5.34435 13.0101 5.66615 12.6132 5.66615C8.90115 5.66615 6.60056 7.27244 5.60653 10.6084L5.53077 10.8754L5.86828 10.6485C8.01158 9.24762 10.2631 8.54115 12.6132 8.54115C12.977 8.54115 13.2778 8.81154 13.3253 9.16237L13.3319 9.2599V10.9301L17.3198 7.10373L13.3319 3.2786Z" fill="#4F4F4F"/>
</svg>
