<svg width="33" height="45" viewBox="0 0 33 45" fill="none" xmlns="http://www.w3.org/2000/svg">
<g filter="url(#filter0_d_1462_18797)">
<path d="M12.9023 25.2317L16.8299 27.6172L8.85427 42.1501L6.56508 36.7791L12.9023 25.2317Z" fill="#418ED6"/>
<path d="M12.9023 25.2317L8.97476 22.8461L0.999092 37.379L6.56508 36.7791L12.9023 25.2317Z" fill="#2B63A6"/>
<path d="M18.5059 25.2317L14.5783 27.6172L22.5539 42.1501L24.8431 36.7791L18.5059 25.2317Z" fill="#2B63A6"/>
<path d="M18.5059 25.2317L22.4334 22.8461L30.4091 37.379L24.8431 36.7791L18.5059 25.2317Z" fill="#418ED6"/>
<path d="M15.6977 29.5576C23.2298 29.5576 29.3267 23.1356 29.3267 15.2253C29.3267 7.31489 23.2298 0.892875 15.6977 0.892875C8.16553 0.892875 2.06866 7.31489 2.06866 15.2253C2.06866 23.1356 8.16553 29.5576 15.6977 29.5576Z" fill="#E3E3E3" stroke="#404040" stroke-width="0.21425"/>
<ellipse cx="15.6996" cy="15.2252" rx="10.5551" ry="11.1041" fill="#595959"/>
<mask id="mask0_1462_18797" style="mask-type:alpha" maskUnits="userSpaceOnUse" x="5" y="5" width="22" height="23">
<ellipse cx="16.2613" cy="16.4107" rx="10.5796" ry="11.13" fill="#C28B37"/>
</mask>
<g mask="url(#mask0_1462_18797)">
<ellipse cx="15.6988" cy="15.2252" rx="10.5796" ry="11.13" fill="url(#paint0_linear_1462_18797)"/>
</g>
<path d="M15.7567 7.48242L18.0389 12.2842L22.6032 12.8844L19.469 16.5818L20.321 21.8878L15.7567 19.4869L11.1923 21.8878L12.052 16.5818L8.91016 12.8844L13.4745 12.2842L15.7567 7.48242Z" fill="url(#paint1_linear_1462_18797)"/>
</g>
<defs>
<filter id="filter0_d_1462_18797" x="0.83122" y="0.617903" width="32.0959" height="44.0501" filterUnits="userSpaceOnUse" color-interpolation-filters="sRGB">
<feFlood flood-opacity="0" result="BackgroundImageFix"/>
<feColorMatrix in="SourceAlpha" type="matrix" values="0 0 0 0 0 0 0 0 0 0 0 0 0 0 0 0 0 0 127 0" result="hardAlpha"/>
<feOffset dx="1.17505" dy="1.17505"/>
<feGaussianBlur stdDeviation="0.671457"/>
<feComposite in2="hardAlpha" operator="out"/>
<feColorMatrix type="matrix" values="0 0 0 0 0 0 0 0 0 0 0 0 0 0 0 0 0 0 0.3 0"/>
<feBlend mode="normal" in2="BackgroundImageFix" result="effect1_dropShadow_1462_18797"/>
<feBlend mode="normal" in="SourceGraphic" in2="effect1_dropShadow_1462_18797" result="shape"/>
</filter>
<linearGradient id="paint0_linear_1462_18797" x1="15.6988" y1="4.09521" x2="15.6988" y2="26.3551" gradientUnits="userSpaceOnUse">
<stop stop-color="#9CA1A3"/>
<stop offset="1" stop-color="#9CA1A3" stop-opacity="0"/>
</linearGradient>
<linearGradient id="paint1_linear_1462_18797" x1="15.7567" y1="7.48242" x2="15.7567" y2="21.8877" gradientUnits="userSpaceOnUse">
<stop stop-color="#F1F5F5"/>
<stop offset="0.0001" stop-color="white"/>
<stop offset="1" stop-color="#F1F5F5"/>
</linearGradient>
</defs>
</svg>
