<svg width="53" height="24" viewBox="0 0 53 24" fill="none" xmlns="http://www.w3.org/2000/svg">
<rect width="53" height="24" rx="4" fill="#A8ECDC"/>
<g clip-path="url(#clip0_1693_24974)">
<path d="M14.8008 9.96838C14.7448 10.0244 14.6696 10.0564 14.5912 10.0564H7.15919C6.89679 10.0564 6.76399 9.73638 6.94639 9.54598L8.16559 8.28358C8.22159 8.22598 8.29839 8.19238 8.37839 8.19238H15.8376C16.1016 8.19238 16.2344 8.51558 16.0472 8.70598L14.8008 9.96838ZM14.8008 15.61C14.7448 15.6644 14.6696 15.6964 14.5912 15.6964H7.15919C6.89679 15.6964 6.76399 15.3844 6.94639 15.1988L8.16559 13.9668C8.22159 13.9108 8.29839 13.8788 8.37839 13.8788H15.8376C16.1016 13.8788 16.2344 14.194 16.0472 14.3796L14.8008 15.61ZM14.5912 11.0356C14.6696 11.0356 14.7448 11.066 14.8008 11.122L16.0472 12.354C16.2344 12.538 16.1016 12.8548 15.8376 12.8548H8.37839C8.29839 12.8548 8.22159 12.8228 8.16559 12.7668L6.94639 11.5348C6.76239 11.3492 6.89519 11.0372 7.15919 11.0372L14.5912 11.0356Z" fill="#00FFAD"/>
<path d="M11.5 4C15.9176 4 19.5 7.5824 19.5 12C19.5 16.4176 15.9176 20 11.5 20C7.0824 20 3.5 16.4176 3.5 12C3.5 7.5824 7.0824 4 11.5 4Z" fill="black"/>
<path fill-rule="evenodd" clip-rule="evenodd" d="M7.1992 11.2364H14.6024C14.6952 11.2364 14.7832 11.2732 14.8472 11.3388L16.0184 12.518C16.2344 12.7356 16.0808 13.1068 15.7736 13.1068H8.3704C8.2776 13.1068 8.1896 13.07 8.1256 13.0044L6.9544 11.8252C6.7368 11.6076 6.892 11.2364 7.1992 11.2364ZM6.9544 9.6732L8.1256 8.494C8.1912 8.4284 8.2792 8.3916 8.3704 8.3916H15.772C16.0792 8.3916 16.2344 8.7628 16.0168 8.9804L14.8472 10.1596C14.7816 10.2252 14.6936 10.262 14.6024 10.262H7.1992C6.892 10.262 6.7368 9.8908 6.9544 9.6732ZM16.0168 14.67L14.8456 15.8492C14.78 15.9148 14.692 15.9516 14.6008 15.9516H7.1992C6.892 15.9516 6.7368 15.5804 6.9544 15.3628L8.1256 14.1836C8.1912 14.118 8.2792 14.0812 8.3704 14.0812H15.772C16.0792 14.0812 16.2344 14.4524 16.0168 14.67Z" fill="url(#paint0_linear_1693_24974)"/>
</g>
<path d="M29.8153 9.90909C29.7599 9.44129 29.5353 9.07812 29.1413 8.8196C28.7474 8.56108 28.2642 8.43182 27.6918 8.43182C27.2732 8.43182 26.907 8.49953 26.593 8.63494C26.2822 8.77036 26.0391 8.95656 25.8636 9.19354C25.6913 9.43052 25.6051 9.69981 25.6051 10.0014C25.6051 10.2538 25.6651 10.4708 25.7852 10.6523C25.9083 10.8308 26.0652 10.9801 26.256 11.1001C26.4469 11.2171 26.6469 11.314 26.8562 11.391C27.0655 11.4648 27.2578 11.5249 27.4332 11.571L28.3935 11.8295C28.6397 11.8942 28.9136 11.9834 29.2152 12.0973C29.5199 12.2112 29.8107 12.3666 30.0877 12.5636C30.3678 12.7575 30.5986 13.0067 30.7802 13.3114C30.9618 13.6161 31.0526 13.9901 31.0526 14.4332C31.0526 14.9441 30.9187 15.4058 30.6509 15.8182C30.3862 16.2306 29.9985 16.5584 29.4876 16.8015C28.9798 17.0446 28.3627 17.1662 27.6364 17.1662C26.9593 17.1662 26.373 17.0569 25.8775 16.8384C25.3851 16.6199 24.9973 16.3152 24.7141 15.9244C24.4341 15.5335 24.2756 15.0795 24.2386 14.5625H25.4205C25.4512 14.9195 25.5713 15.215 25.7805 15.4489C25.9929 15.6797 26.2607 15.852 26.5838 15.9659C26.91 16.0767 27.2609 16.1321 27.6364 16.1321C28.0734 16.1321 28.4658 16.0613 28.8136 15.9197C29.1613 15.7751 29.4368 15.575 29.6399 15.3196C29.843 15.0611 29.9446 14.7595 29.9446 14.4148C29.9446 14.1009 29.8569 13.8454 29.6815 13.6484C29.506 13.4515 29.2752 13.2914 28.989 13.1683C28.7028 13.0452 28.3935 12.9375 28.0611 12.8452L26.8977 12.5128C26.1591 12.3004 25.5743 11.9973 25.1435 11.6033C24.7126 11.2094 24.4972 10.6939 24.4972 10.0568C24.4972 9.52746 24.6403 9.06581 24.9265 8.67188C25.2158 8.27486 25.6036 7.96709 26.0898 7.74858C26.5792 7.52699 27.1255 7.41619 27.7287 7.41619C28.3381 7.41619 28.8797 7.52545 29.3537 7.74396C29.8277 7.9594 30.2031 8.25485 30.4801 8.63033C30.7602 9.0058 30.9079 9.43205 30.9233 9.90909H29.8153ZM40.9122 12.2727C40.9122 13.2699 40.7322 14.1316 40.3721 14.858C40.012 15.5843 39.518 16.1444 38.8902 16.5384C38.2623 16.9323 37.5452 17.1293 36.7389 17.1293C35.9326 17.1293 35.2155 16.9323 34.5876 16.5384C33.9598 16.1444 33.4658 15.5843 33.1057 14.858C32.7456 14.1316 32.5656 13.2699 32.5656 12.2727C32.5656 11.2756 32.7456 10.4138 33.1057 9.6875C33.4658 8.96117 33.9598 8.40104 34.5876 8.0071C35.2155 7.61316 35.9326 7.41619 36.7389 7.41619C37.5452 7.41619 38.2623 7.61316 38.8902 8.0071C39.518 8.40104 40.012 8.96117 40.3721 9.6875C40.7322 10.4138 40.9122 11.2756 40.9122 12.2727ZM39.8042 12.2727C39.8042 11.4541 39.6673 10.7631 39.3934 10.1999C39.1225 9.63672 38.7548 9.21046 38.29 8.92116C37.8284 8.63187 37.3113 8.48722 36.7389 8.48722C36.1665 8.48722 35.6479 8.63187 35.1831 8.92116C34.7215 9.21046 34.3537 9.63672 34.0798 10.1999C33.809 10.7631 33.6736 11.4541 33.6736 12.2727C33.6736 13.0914 33.809 13.7823 34.0798 14.3455C34.3537 14.9087 34.7215 15.335 35.1831 15.6243C35.6479 15.9136 36.1665 16.0582 36.7389 16.0582C37.3113 16.0582 37.8284 15.9136 38.29 15.6243C38.7548 15.335 39.1225 14.9087 39.3934 14.3455C39.6673 13.7823 39.8042 13.0914 39.8042 12.2727ZM42.8373 17V7.54545H43.9822V15.9844H48.377V17H42.8373Z" fill="black"/>
<defs>
<linearGradient id="paint0_linear_1693_24974" x1="7.38031" y1="16.2769" x2="15.5909" y2="8.06632" gradientUnits="userSpaceOnUse">
<stop stop-color="#CB4EE8"/>
<stop offset="1" stop-color="#10F4B1"/>
</linearGradient>
<clipPath id="clip0_1693_24974">
<rect width="16" height="16" fill="white" transform="translate(3.5 4)"/>
</clipPath>
</defs>
</svg>
