<svg width="33" height="32" viewBox="0 0 33 32" fill="none" xmlns="http://www.w3.org/2000/svg">
<path d="M14.2651 1.42369C15.0759 -0.219348 17.4189 -0.219358 18.2298 1.42368L22.0909 9.2472L30.7247 10.5018C32.5379 10.7652 33.2619 12.9935 31.9498 14.2724L25.7024 20.3622L27.1772 28.9611C27.4869 30.7669 25.5915 32.1441 23.9697 31.2914L16.2474 27.2316L8.52513 31.2914C6.90336 32.1441 5.00789 30.7669 5.31763 28.9611L6.79245 20.3622L0.544999 14.2724C-0.767041 12.9935 -0.0430507 10.7652 1.77015 10.5018L10.4039 9.2472L14.2651 1.42369ZM16.2474 2.95703L12.5494 10.4501C12.2274 11.1025 11.6049 11.5547 10.8849 11.6594L2.61588 12.8609L8.59941 18.6934C9.12043 19.2013 9.35817 19.933 9.23518 20.6501L7.82266 28.8857L15.2187 24.9974C15.8627 24.6588 16.6321 24.6588 17.2761 24.9974L24.6722 28.8857L23.2596 20.6501C23.1366 19.933 23.3744 19.2013 23.8954 18.6934L29.8789 12.8609L21.6099 11.6594C20.8899 11.5547 20.2674 11.1025 19.9454 10.4501L16.2474 2.95703Z" fill="url(#paint0_linear_2583_7185)"/>
<defs>
<linearGradient id="paint0_linear_2583_7185" x1="-0.125" y1="15.8708" x2="32.6198" y2="15.8708" gradientUnits="userSpaceOnUse">
<stop stop-color="#5E1ED1"/>
<stop offset="1" stop-color="#3065F3"/>
</linearGradient>
</defs>
</svg>
