<svg width="16" height="17" viewBox="0 0 16 17" fill="none" xmlns="http://www.w3.org/2000/svg">
<path d="M7.03026 1.382C7.42642 0.579294 8.57105 0.57929 8.96721 1.382L10.8536 5.20418L15.0716 5.81709C15.9574 5.94581 16.3111 7.03442 15.6701 7.65924L12.6179 10.6344L13.3385 14.8354C13.4898 15.7176 12.5638 16.3904 11.7714 15.9739L7.99873 13.9904L4.22602 15.9739C3.4337 16.3904 2.50767 15.7176 2.65899 14.8354L3.37952 10.6344L0.327328 7.65924C-0.313669 7.03442 0.0400363 5.94581 0.925877 5.81709L5.1439 5.20418L7.03026 1.382ZM7.99873 2.13111L6.19206 5.79183C6.03475 6.11058 5.73066 6.33152 5.37889 6.38263L1.33905 6.96965L4.26231 9.81912C4.51685 10.0672 4.633 10.4247 4.57291 10.7751L3.88283 14.7986L7.49617 12.8989C7.8108 12.7335 8.18667 12.7335 8.5013 12.8989L12.1146 14.7986L11.4246 10.7751C11.3645 10.4247 11.4806 10.0672 11.7352 9.81912L14.6584 6.96965L10.6186 6.38263C10.2668 6.33152 9.96272 6.11058 9.8054 5.79183L7.99873 2.13111Z" fill="#F7F7F7"/>
</svg>
