<svg width="20" height="20" viewBox="0 0 20 20" fill="none" xmlns="http://www.w3.org/2000/svg">
<path d="M8.78782 1.10215C9.28302 0.0987669 10.7138 0.098761 11.209 1.10215L13.567 5.87987L18.8395 6.64601C19.9468 6.80691 20.3889 8.16767 19.5877 8.9487L15.7724 12.6676L16.6731 17.9189C16.8622 19.0217 15.7047 19.8627 14.7143 19.342L9.99842 16.8627L5.28252 19.342C4.29213 19.8627 3.13459 19.0217 3.32374 17.9189L4.2244 12.6676L0.409159 8.9487C-0.392086 8.16768 0.0500454 6.80691 1.15735 6.64601L6.42988 5.87987L8.78782 1.10215ZM9.99842 2.03854L7.74008 6.61443C7.54344 7.01288 7.16332 7.28904 6.72361 7.35294L1.67382 8.08672L5.32788 11.6486C5.64606 11.9587 5.79125 12.4055 5.71614 12.8435L4.85353 17.8729L9.37021 15.4983C9.76349 15.2915 10.2333 15.2915 10.6266 15.4983L15.1433 17.8729L14.2807 12.8435C14.2056 12.4055 14.3508 11.9587 14.6689 11.6486L18.323 8.08672L13.2732 7.35294C12.8335 7.28904 12.4534 7.01288 12.2568 6.61443L9.99842 2.03854Z" fill="url(#paint0_linear_2162_2015)"/>
<defs>
<linearGradient id="paint0_linear_2162_2015" x1="0" y1="9.92484" x2="19.9968" y2="9.92484" gradientUnits="userSpaceOnUse">
<stop stop-color="#5E1ED1"/>
<stop offset="1" stop-color="#3065F3"/>
</linearGradient>
</defs>
</svg>
