<svg width="20" height="17" viewBox="0 0 20 17" fill="none" xmlns="http://www.w3.org/2000/svg">
<path d="M11.2869 1.07003L11.2869 1.07004L11.2899 1.067C11.5757 0.776273 12.0413 0.77148 12.3397 1.06324C12.5176 1.24219 12.5939 1.49539 12.5434 1.75023C12.5433 1.75074 12.5432 1.75125 12.5431 1.75175L11.7521 5.56493L11.6274 6.16648H12.2417H16.95C18.3814 6.16648 19.3502 7.63196 18.7901 8.95368C18.79 8.95396 18.7899 8.95425 18.7897 8.95454L16.0754 15.2907C16.0752 15.2913 16.0749 15.2919 16.0747 15.2925C15.8858 15.7214 15.4639 15.9998 15 15.9998H7.50004C6.85952 15.9998 6.33337 15.4737 6.33337 14.8331V6.50814C6.33337 6.19738 6.45689 5.90007 6.67026 5.6867L11.2869 1.07003ZM3.66671 14.8331C3.66671 15.4737 3.14056 15.9998 2.50004 15.9998C1.85952 15.9998 1.33337 15.4737 1.33337 14.8331V8.16648C1.33337 7.52595 1.85952 6.99981 2.50004 6.99981C3.14056 6.99981 3.66671 7.52595 3.66671 8.16648V14.8331Z" stroke="#4F4F4F"/>
</svg>
