<svg width="20" height="17" viewBox="0 0 20 17" fill="none" xmlns="http://www.w3.org/2000/svg">
<path d="M8.71307 15.93L8.71306 15.93L8.71006 15.933C8.42427 16.2237 7.95867 16.2285 7.66031 15.9368C7.48237 15.7578 7.40615 15.5046 7.45661 15.2498C7.45671 15.2493 7.45682 15.2488 7.45692 15.2482L8.24787 11.4351L8.37265 10.8335L7.75829 10.8335L3.04996 10.8335C1.61858 10.8335 0.649848 9.36804 1.20989 8.04632C1.21001 8.04604 1.21013 8.04575 1.21025 8.04546L3.92456 1.70926C3.92482 1.70867 3.92508 1.70808 3.92534 1.7075C4.11417 1.27858 4.53614 1.00019 4.99996 1.00019L12.5 1.00019C13.1405 1.00019 13.6666 1.52633 13.6666 2.16685L13.6666 10.4919C13.6666 10.8026 13.5431 11.0999 13.3297 11.3133L8.71307 15.93ZM16.3333 2.16685C16.3333 1.52633 16.8594 1.00019 17.5 1.00019C18.1405 1.00019 18.6666 1.52633 18.6666 2.16685L18.6666 8.83352C18.6666 9.47405 18.1405 10.0002 17.5 10.0002C16.8594 10.0002 16.3333 9.47405 16.3333 8.83352L16.3333 2.16685Z" stroke="#4F4F4F"/>
</svg>
