<svg width="16" height="13" viewBox="0 0 16 13" fill="none" xmlns="http://www.w3.org/2000/svg">
<path d="M13.5447 1.7701C12.5249 1.30218 11.4313 0.957433 10.2879 0.759984C10.2671 0.756173 10.2463 0.765696 10.2356 0.784743C10.0949 1.03489 9.93915 1.36122 9.83006 1.61771C8.60027 1.4336 7.37679 1.4336 6.17221 1.61771C6.0631 1.35552 5.90166 1.03489 5.76038 0.784743C5.74966 0.766331 5.72886 0.756808 5.70803 0.759984C4.56527 0.956802 3.47171 1.30155 2.45129 1.7701C2.44246 1.77391 2.43488 1.78026 2.42986 1.78851C0.355594 4.88742 -0.212633 7.91015 0.0661201 10.8954C0.0673814 10.91 0.0755799 10.924 0.086932 10.9329C1.45547 11.9379 2.78114 12.548 4.08219 12.9525C4.10301 12.9588 4.12507 12.9512 4.13832 12.934C4.44608 12.5138 4.72043 12.0706 4.95565 11.6046C4.96953 11.5773 4.95628 11.5449 4.92791 11.5341C4.49275 11.369 4.0784 11.1678 3.67982 10.9392C3.64829 10.9208 3.64577 10.8757 3.67477 10.8541C3.75865 10.7913 3.84255 10.7259 3.92264 10.6599C3.93713 10.6478 3.95732 10.6453 3.97435 10.6529C6.59286 11.8484 9.4277 11.8484 12.0153 10.6529C12.0323 10.6446 12.0525 10.6472 12.0677 10.6592C12.1478 10.7253 12.2316 10.7913 12.3161 10.8541C12.3451 10.8757 12.3433 10.9208 12.3117 10.9392C11.9131 11.1722 11.4988 11.369 11.063 11.5335C11.0346 11.5443 11.022 11.5773 11.0359 11.6046C11.2762 12.07 11.5505 12.5131 11.8526 12.9334C11.8652 12.9512 11.8879 12.9588 11.9087 12.9525C13.2161 12.548 14.5417 11.9379 15.9103 10.9329C15.9223 10.924 15.9298 10.9106 15.9311 10.896C16.2647 7.44476 15.3723 4.44681 13.5655 1.78914C13.5611 1.78026 13.5535 1.77391 13.5447 1.7701ZM5.34668 9.0777C4.55833 9.0777 3.90876 8.35394 3.90876 7.46508C3.90876 6.57623 4.54574 5.85246 5.34668 5.85246C6.15392 5.85246 6.79721 6.58258 6.78459 7.46508C6.78459 8.35394 6.14761 9.0777 5.34668 9.0777ZM10.6632 9.0777C9.87484 9.0777 9.22526 8.35394 9.22526 7.46508C9.22526 6.57623 9.86222 5.85246 10.6632 5.85246C11.4704 5.85246 12.1137 6.58258 12.1011 7.46508C12.1011 8.35394 11.4704 9.0777 10.6632 9.0777Z" fill="#F7F7F7"/>
</svg>
