<svg width="18" height="19" viewBox="0 0 18 19" fill="none" xmlns="http://www.w3.org/2000/svg">
<g clip-path="url(#clip0_1462_20085)">
<path d="M5.93066 16.4861C12.3944 16.4861 15.9307 11.1297 15.9307 6.48604C15.9307 6.33546 15.9274 6.18153 15.9207 6.03094C16.6086 5.53344 17.2023 4.91722 17.6738 4.21123C17.0331 4.49628 16.3529 4.68245 15.6563 4.76337C16.3898 4.32374 16.9389 3.63311 17.202 2.8195C16.512 3.2284 15.7575 3.51685 14.9707 3.67247C14.4406 3.10919 13.7396 2.73623 12.9763 2.61125C12.2129 2.48627 11.4297 2.61625 10.7476 2.98107C10.0655 3.3459 9.52264 3.92525 9.20285 4.62957C8.88307 5.33388 8.80421 6.12393 8.97847 6.87756C7.58138 6.80745 6.21463 6.44452 4.9668 5.81231C3.71897 5.1801 2.61794 4.29271 1.73507 3.20767C1.28634 3.98132 1.14904 4.8968 1.35104 5.76805C1.55305 6.63929 2.07922 7.40094 2.82261 7.89818C2.26452 7.88046 1.71865 7.7302 1.23011 7.45981V7.50332C1.22961 8.3152 1.51029 9.10221 2.02443 9.73055C2.53857 10.3589 3.25445 10.7898 4.05037 10.95C3.53339 11.0915 2.99079 11.1121 2.46456 11.0102C2.68915 11.7085 3.12613 12.3192 3.71451 12.7571C4.30288 13.195 5.0133 13.4383 5.74661 13.453C4.50167 14.431 2.9638 14.9614 1.38069 14.9589C1.09994 14.9584 0.819469 14.9412 0.540771 14.9073C2.14904 15.9391 4.01988 16.4871 5.93066 16.4861Z" fill="#9A9A9A"/>
</g>
<defs>
<clipPath id="clip0_1462_20085">
<rect width="17.1331" height="17.1331" fill="white" transform="translate(0.540771 0.95929)"/>
</clipPath>
</defs>
</svg>
