<svg width="17" height="16" viewBox="0 0 17 16" fill="none" xmlns="http://www.w3.org/2000/svg">
<path d="M12.2721 0.949954L12.3629 1.13125L13.0479 2.9529C13.1017 3.09635 13.2149 3.20955 13.3583 3.26337L15.1171 3.9232C15.8889 4.21276 16.3037 5.03749 16.098 5.8178L16.0485 5.97309L15.2303 7.78268C15.1669 7.92217 15.1669 8.08225 15.2303 8.22174L16.0074 9.93197C16.3484 10.6825 16.0585 11.5589 15.3613 11.9652L15.18 12.0561L13.3583 12.7411C13.2149 12.7949 13.1017 12.9081 13.0479 13.0515L12.388 14.8103C12.0985 15.5821 11.2738 15.9969 10.4934 15.7912L10.3382 15.7417L8.52857 14.9235C8.38907 14.8601 8.22899 14.8601 8.0895 14.9235L6.37928 15.7006C5.62878 16.0416 4.75234 15.7517 4.34601 15.0545L4.2552 14.8732L3.57019 13.0515C3.51637 12.9081 3.40318 12.7949 3.25972 12.7411L1.50094 12.0812C0.729133 11.7917 0.314387 10.9669 0.520052 10.1866L0.569535 10.0313L1.38776 8.22174C1.45115 8.08225 1.45115 7.92217 1.38776 7.78268L0.610692 6.07246C0.269689 5.32196 0.55959 4.44552 1.25678 4.03918L1.43807 3.94837L3.25972 3.26337C3.40318 3.20955 3.51637 3.09635 3.57019 2.9529L4.23003 1.19412C4.51958 0.42231 5.34431 0.00756311 6.12462 0.213228L6.27992 0.262711L8.0895 1.08094C8.22899 1.14432 8.38907 1.14432 8.52857 1.08094L10.2388 0.303868C10.9893 -0.0371349 11.8657 0.252766 12.2721 0.949954ZM10.8804 5.27613L7.09488 9.60245L5.71353 8.2211C5.50628 8.01385 5.17026 8.01385 4.96301 8.2211C4.75576 8.42835 4.75576 8.76437 4.96301 8.97163L6.74547 10.7541C6.96254 10.9712 7.31797 10.9593 7.52012 10.7283L11.6792 5.97507C11.8722 5.75449 11.8498 5.41921 11.6293 5.22621C11.4087 5.0332 11.0734 5.05555 10.8804 5.27613Z" fill="#7DA1FF"/>
</svg>
