<svg width="24" height="22" viewBox="0 0 24 22" fill="none" xmlns="http://www.w3.org/2000/svg">
<path d="M17.0155 0C21.0583 0 23.4444 2.32638 23.4444 6.30867H18.4846V6.3493C16.1828 6.3493 14.3167 8.16862 14.3167 10.4129C14.3167 12.6571 16.1828 14.4764 18.4846 14.4764H23.4444V14.8421C23.4444 18.7736 21.0583 21.1 17.0155 21.1H6.42899C2.38612 21.1 0 18.7736 0 14.8421V6.25787C0 2.32638 2.38612 0 6.42899 0H17.0155ZM22.5692 8.05599C23.0526 8.05599 23.4444 8.43805 23.4444 8.90934V11.8757C23.4388 12.3447 23.0502 12.7236 22.5692 12.7291H18.5784C17.4131 12.7444 16.3941 11.9665 16.1298 10.8598C15.9974 10.1729 16.1832 9.46401 16.6374 8.92321C17.0916 8.38241 17.7678 8.06498 18.4846 8.05599H22.5692ZM19.0473 9.42744H18.6618C18.4251 9.42473 18.1971 9.5145 18.0288 9.67674C17.8604 9.83897 17.7657 10.0602 17.7657 10.2909C17.7656 10.7751 18.1652 11.1692 18.6618 11.1748H19.0473C19.5422 11.1748 19.9434 10.7836 19.9434 10.3011C19.9434 9.8186 19.5422 9.42744 19.0473 9.42744ZM12.1703 4.56134H5.55373C5.06287 4.56131 4.66334 4.9463 4.65763 5.42484C4.65763 5.90903 5.05715 6.3031 5.55373 6.30867H12.1703C12.6652 6.30867 13.0664 5.91751 13.0664 5.435C13.0664 4.95249 12.6652 4.56134 12.1703 4.56134Z" fill="#200E32"/>
</svg>
