<svg width="14" height="14" viewBox="0 0 14 14" fill="none" xmlns="http://www.w3.org/2000/svg">
<path d="M4.93615 10.0006H9.0638C8.65051 12.1815 7.82291 13.666 6.99998 13.666C6.20198 13.666 5.39959 12.2701 4.97485 10.1969L4.93615 10.0006H9.0638H4.93615ZM1.04385 10.0007L3.91427 10.0005C4.15745 11.3887 4.56964 12.5697 5.10906 13.3962C3.40051 12.8916 1.97807 11.7217 1.14141 10.1866L1.04385 10.0007ZM10.0857 10.0005L12.9561 10.0007C12.1352 11.6271 10.6678 12.8714 8.89157 13.3959C9.3946 12.6242 9.78706 11.5442 10.0348 10.2753L10.0857 10.0005L12.9561 10.0007L10.0857 10.0005ZM10.2876 5.66723L13.5343 5.66682C13.6218 6.0977 13.6677 6.54366 13.6677 7.00035C13.6677 7.69723 13.5608 8.36915 13.3625 9.00061H10.2274C10.2976 8.36221 10.3343 7.69149 10.3343 7.00035C10.3343 6.69747 10.3273 6.39851 10.3134 6.10447L10.2876 5.66723L13.5343 5.66682L10.2876 5.66723ZM0.465651 5.66682L3.71234 5.66723C3.6815 6.10053 3.66561 6.54603 3.66561 7.00035C3.66561 7.55326 3.68915 8.0931 3.73451 8.61379L3.77259 9.00061H0.637499C0.439186 8.36915 0.332275 7.69723 0.332275 7.00035C0.332275 6.54366 0.378189 6.0977 0.465651 5.66682ZM4.71697 5.66685H9.28298C9.31648 6.09727 9.33434 6.54317 9.33434 7.00035C9.33434 7.55878 9.30769 8.10037 9.25845 8.6175L9.21734 9.00065H4.78261C4.70725 8.37012 4.66561 7.69839 4.66561 7.00035C4.66561 6.65746 4.67566 6.32093 4.69481 5.9925L4.71697 5.66685H9.28298H4.71697ZM8.96283 0.718064L8.8909 0.604579C10.9031 1.19856 12.5191 2.7163 13.2479 4.6668L10.1873 4.66699C9.97698 3.05571 9.54968 1.67192 8.96283 0.718064L8.8909 0.604579L8.96283 0.718064ZM5.02783 0.629123L5.10901 0.604604C4.52184 1.50428 4.08543 2.82402 3.85366 4.37376L3.81262 4.66699L0.752027 4.6668C1.471 2.74262 3.0534 1.2396 5.02783 0.629123L5.10901 0.604604L5.02783 0.629123ZM6.99998 0.334656C7.87917 0.334656 8.7637 2.02916 9.14263 4.45695L9.17386 4.66682H4.8261C5.1857 2.12737 6.09566 0.334656 6.99998 0.334656Z" fill="#F7F7F7"/>
</svg>
